<?xml version="1.0" encoding="UTF-8"?>
<svg version="1.1" xmlns="http://www.w3.org/2000/svg" width="500" height="500">
<path d="M0 0 C1.133237 -0.01007584 1.133237 -0.01007584 2.28936768 -0.02035522 C4.76809404 -0.03923441 7.24654817 -0.04325431 9.7253418 -0.04541016 C11.46258146 -0.05184522 13.19982005 -0.0585741 14.9370575 -0.06558228 C18.57248444 -0.07752995 22.20781654 -0.0812657 25.84326172 -0.08007812 C30.47991731 -0.07987511 35.1159588 -0.10717032 39.75246906 -0.14162254 C43.33950034 -0.16396432 46.92638553 -0.16791344 50.51347923 -0.16685867 C52.22175397 -0.16920395 53.9300334 -0.17796636 55.63823891 -0.19352341 C66.74175518 -0.28517934 77.14449344 -0.11127402 85.73706055 7.91552734 C86.71545898 8.80111328 86.71545898 8.80111328 87.71362305 9.70458984 C89.11206055 11.29052734 89.11206055 11.29052734 89.11206055 13.29052734 C89.77206055 13.29052734 90.43206055 13.29052734 91.11206055 13.29052734 C96.20795213 22.42463152 95.69708461 31.7214762 95.64331055 41.85302734 C95.64601043 43.65324106 95.64989696 45.45345334 95.65490723 47.25366211 C95.66077897 51.0125121 95.6523148 54.77097988 95.63354492 58.52978516 C95.61075668 63.32447237 95.62389231 68.11826367 95.64783478 72.91291809 C95.66235594 76.62608471 95.65765796 80.33904232 95.64732361 84.05221558 C95.64467374 85.81908273 95.64786415 87.58596947 95.65724182 89.35281372 C95.73042403 107.01236591 95.73042403 107.01236591 91.11206055 115.29052734 C90.45206055 115.29052734 89.79206055 115.29052734 89.11206055 115.29052734 C88.85553711 115.88736328 88.59901367 116.48419922 88.3347168 117.09912109 C86.98957785 119.51005704 85.74023818 120.69342308 83.54956055 122.35302734 C82.92952148 122.83900391 82.30948242 123.32498047 81.6706543 123.82568359 C72.34661193 129.16387579 62.83965929 128.73224377 52.4519043 128.68896484 C50.73515194 128.69098922 49.01840043 128.69390368 47.301651 128.69766235 C43.71680453 128.70206741 40.13218341 128.69571282 36.54736328 128.68164062 C31.96893119 128.66453679 27.39102634 128.67440896 22.81261349 128.69235802 C19.27197852 128.70323417 15.73146715 128.69973222 12.19082832 128.69197464 C10.50325011 128.68998388 8.81566041 128.69239208 7.12809563 128.6994133 C4.76429672 128.70709281 2.40133475 128.69533466 0.03759766 128.67871094 C-0.64885834 128.68478363 -1.33531433 128.69085632 -2.04257202 128.69711304 C-10.97718275 128.58159617 -17.90354865 124.80058591 -24.51293945 118.97802734 C-31.12677578 111.4939494 -33.12682731 103.58211774 -33.16259766 93.74804688 C-33.16770859 93.04117737 -33.17281952 92.33430786 -33.17808533 91.60601807 C-33.19185891 89.2950365 -33.19103381 86.9843573 -33.1887207 84.67333984 C-33.19261452 83.04963065 -33.19695059 81.42592247 -33.20170593 79.80221558 C-33.20914199 76.40814911 -33.20889605 73.01418672 -33.20361328 69.62011719 C-33.19782385 65.29409473 -33.21474951 60.96850115 -33.23795795 56.64254951 C-33.25276809 53.29142817 -33.25355712 49.94040838 -33.25044823 46.5892601 C-33.25095784 44.9954328 -33.25612722 43.40159928 -33.26626015 41.80780411 C-33.33324378 29.79945632 -32.57507125 19.09275753 -24.88793945 9.29052734 C-22.38793945 6.97802734 -22.38793945 6.97802734 -19.88793945 5.29052734 C-19.10418945 4.75427734 -18.32043945 4.21802734 -17.51293945 3.66552734 C-11.86508318 0.70712644 -6.28958533 -0.00816918 0 0 Z " fill="#131220" transform="translate(328.887939453125,185.70947265625)"/>
<path d="M0 0 C1.94873426 3.08549591 2.22280685 5.77148909 2.5 9.375 C-0.71451269 10.98225635 -3.93612536 10.43248185 -7.5 10.375 C-8.16 8.725 -8.82 7.075 -9.5 5.375 C-10.49 5.87 -10.49 5.87 -11.5 6.375 C-13.27122633 11.86580161 -13.31570404 18.92788787 -11.5 24.375 C-10.51 24.045 -9.52 23.715 -8.5 23.375 C-8.17 20.735 -7.84 18.095 -7.5 15.375 C-6.66855469 15.36082031 -5.83710937 15.34664063 -4.98046875 15.33203125 C-3.89378906 15.28433594 -2.80710937 15.23664063 -1.6875 15.1875 C-0.60855469 15.15269531 0.47039062 15.11789062 1.58203125 15.08203125 C4.69517761 14.65874161 4.69517761 14.65874161 6.30078125 11.9296875 C6.69652344 11.08664062 7.09226563 10.24359375 7.5 9.375 C9.79096898 6.56335625 11.99520158 5.33085411 15.5 4.375 C21.65475313 4.6933493 21.65475313 4.6933493 24.4375 6.9375 C24.788125 7.411875 25.13875 7.88625 25.5 8.375 C26.16 7.715 26.82 7.055 27.5 6.375 C29.77734375 5.92578125 29.77734375 5.92578125 32.4375 5.6875 C33.31277344 5.60113281 34.18804687 5.51476562 35.08984375 5.42578125 C37.5 5.375 37.5 5.375 40.5 6.375 C41.83397337 6.36962108 43.16816384 6.32567251 44.5 6.25 C48.24843216 6.2156737 48.24843216 6.2156737 50.375 7.5625 C51.73139999 9.7478111 52.6484919 11.95147695 53.5 14.375 C54.11875 13.385 54.7375 12.395 55.375 11.375 C56.426875 9.89 56.426875 9.89 57.5 8.375 C58.16 8.375 58.82 8.375 59.5 8.375 C59.5 7.715 59.5 7.055 59.5 6.375 C63.83245329 4.14313013 66.78994391 4.26171401 71.5 5.375 C73.9375 6.9375 73.9375 6.9375 75.5 8.375 C75.83 7.715 76.16 7.055 76.5 6.375 C77.41523438 6.39820313 78.33046875 6.42140625 79.2734375 6.4453125 C81.05621094 6.47238281 81.05621094 6.47238281 82.875 6.5 C84.65003906 6.53480469 84.65003906 6.53480469 86.4609375 6.5703125 C89.61153817 6.70366229 89.61153817 6.70366229 91.5 4.375 C95.39449703 4.68246029 97.49455496 5.99137118 100.5 8.375 C101.16 8.375 101.82 8.375 102.5 8.375 C102.5 7.715 102.5 7.055 102.5 6.375 C112.03067431 3.70947942 112.03067431 3.70947942 116.3125 5.8125 C119.75261933 7.498833 120.94878381 7.55873873 124.5 6.375 C124.4690625 5.1684375 124.4690625 5.1684375 124.4375 3.9375 C124.5 1.375 124.5 1.375 125.5 0.375 C127.35772162 0.46484301 129.21247985 0.62111861 131.0625 0.8125 C132.07441406 0.91433594 133.08632812 1.01617187 134.12890625 1.12109375 C134.91136719 1.20488281 135.69382813 1.28867187 136.5 1.375 C136.5 3.025 136.5 4.675 136.5 6.375 C138.48 6.705 140.46 7.035 142.5 7.375 C142.83 8.695 143.16 10.015 143.5 11.375 C144.428125 10.1684375 144.428125 10.1684375 145.375 8.9375 C148.52050578 5.80093032 151.66603855 5.4747747 155.984375 5.22265625 C159.72021944 5.44889528 162.22804444 6.59676328 165.5 8.375 C165.83 7.715 166.16 7.055 166.5 6.375 C167.74716797 6.40980469 167.74716797 6.40980469 169.01953125 6.4453125 C170.10621094 6.46335937 171.19289063 6.48140625 172.3125 6.5 C173.39144531 6.52320313 174.47039062 6.54640625 175.58203125 6.5703125 C178.69402868 6.60523717 178.69402868 6.60523717 181.5 4.375 C184.550095 4.52750475 186.02817988 4.95198886 188.3125 7 C189.91568775 10.2063755 189.70379759 12.84250852 189.5 16.375 C186.00615721 17.53961426 183.16344611 17.51068319 179.5 17.375 C179.17 17.045 178.84 16.715 178.5 16.375 C178.17 21.985 177.84 27.595 177.5 33.375 C174.53 33.375 171.56 33.375 168.5 33.375 C167.51 29.745 166.52 26.115 165.5 22.375 C164.9225 23.633125 164.345 24.89125 163.75 26.1875 C162.19936855 29.56566138 160.75381181 31.50246887 157.5 33.375 C152.26540807 34.240931 147.84337963 34.21790487 143.3125 31.375 C142.714375 30.715 142.11625 30.055 141.5 29.375 C141.17 30.035 140.84 30.695 140.5 31.375 C137.8423903 33.3170994 136.40327964 33.3714829 133.0625 33.25 C128.97142347 32.24517418 127.24069455 31.5855279 124.5 28.375 C122.64120868 22.9835804 122.0336477 17.94713874 123.5 12.375 C122.84 12.375 122.18 12.375 121.5 12.375 C121.68304688 13.0659375 121.86609375 13.756875 122.0546875 14.46875 C122.57301303 17.8515061 122.19954868 20.50641319 121.625 23.875 C121.35042969 25.53015625 121.35042969 25.53015625 121.0703125 27.21875 C120.57772467 29.94485254 120.05689633 32.66139609 119.5 35.375 C104.43846154 33.73192308 104.43846154 33.73192308 99.375 30.1875 C97.5 27.375 97.5 27.375 97.375 23.75 C98.5 20.375 98.5 20.375 101.0625 18.4375 C101.866875 18.086875 102.67125 17.73625 103.5 17.375 C102.51 16.715 101.52 16.055 100.5 15.375 C99.96375 15.705 99.4275 16.035 98.875 16.375 C95.93720283 17.61196723 93.65845117 17.58556341 90.5 17.375 C90.17 17.045 89.84 16.715 89.5 16.375 C89.17 21.985 88.84 27.595 88.5 33.375 C85.2 33.375 81.9 33.375 78.5 33.375 C77.51 29.085 76.52 24.795 75.5 20.375 C73.85 21.035 72.2 21.695 70.5 22.375 C71.304375 22.82875 72.10875 23.2825 72.9375 23.75 C75.5 25.375 75.5 25.375 76.5 27.375 C70.99319213 33.35381997 70.99319213 33.35381997 66.5 34.375 C61.42435645 34.5324561 58.40296958 34.13054598 54.4375 30.8125 C53.798125 30.008125 53.15875 29.20375 52.5 28.375 C51.84 29.695 51.18 31.015 50.5 32.375 C49.04176788 32.4020043 47.58339325 32.42139787 46.125 32.4375 C44.90683594 32.45490234 44.90683594 32.45490234 43.6640625 32.47265625 C41.5 32.375 41.5 32.375 39.5 31.375 C39.83 26.095 40.16 20.815 40.5 15.375 C37.68228157 19.60157765 38.07913421 23.82340173 37.93359375 28.74609375 C37.85453602 30.62629285 37.68434812 32.50219073 37.5 34.375 C34.79120665 35.72939668 32.49066732 35.44001451 29.5 35.375 C27.85199144 31.71052568 27.16419027 28.56296534 26.875 24.5625 C26.80023438 23.58667969 26.72546875 22.61085938 26.6484375 21.60546875 C26.59945312 20.86941406 26.55046875 20.13335937 26.5 19.375 C24.52 20.365 22.54 21.355 20.5 22.375 C21.82 22.705 23.14 23.035 24.5 23.375 C24.5 24.035 24.5 24.695 24.5 25.375 C25.16 25.375 25.82 25.375 26.5 25.375 C26.13644809 27.9198634 25.46332668 29.42848193 24 31.5625 C20.36662848 34.19669435 16.92825701 34.46693613 12.5 34.375 C7.16666667 33.04166667 7.16666667 33.04166667 5.5 31.375 C4.84 32.365 4.18 33.355 3.5 34.375 C-0.125 35.0625 -0.125 35.0625 -3.5 35.375 C-4.16 34.055 -4.82 32.735 -5.5 31.375 C-6.16 32.035 -6.82 32.695 -7.5 33.375 C-11.70269808 34.47315097 -15.33166157 34.85757457 -19.375 33.1875 C-23.78597424 29.42519845 -25.04077978 26.61600354 -25.50390625 20.87890625 C-25.4937333 14.35804783 -24.04420529 7.88820823 -20.5 2.375 C-14.70253726 -3.12515696 -6.95972671 -4.52382236 0 0 Z M15.5 11.375 C15.17 12.695 14.84 14.015 14.5 15.375 C15.16 15.375 15.82 15.375 16.5 15.375 C16.17 14.055 15.84 12.735 15.5 11.375 Z M65.5 11.375 C65.17 12.695 64.84 14.015 64.5 15.375 C65.16 15.045 65.82 14.715 66.5 14.375 C66.17 13.385 65.84 12.395 65.5 11.375 Z M108.5 12.375 C108.17 14.025 107.84 15.675 107.5 17.375 C108.82 17.375 110.14 17.375 111.5 17.375 C111.5 15.725 111.5 14.075 111.5 12.375 C110.51 12.375 109.52 12.375 108.5 12.375 Z M153.5 12.375 C151.01104987 17.0600826 151.49023248 20.3261624 152.5 25.375 C153.16 25.705 153.82 26.035 154.5 26.375 C155.68005182 22.68733808 155.70993972 19.22389483 155.5 15.375 C154.84 14.385 154.18 13.395 153.5 12.375 Z M134.5 14.375 C134.5 16.355 134.5 18.335 134.5 20.375 C136.81 21.035 139.12 21.695 141.5 22.375 C141.83 19.075 142.16 15.775 142.5 12.375 C139.86423317 12.375 137.01486589 13.64340265 134.5 14.375 Z M13.5 21.375 C13.83 23.025 14.16 24.675 14.5 26.375 C15.82 25.715 17.14 25.055 18.5 24.375 C18.5 23.715 18.5 23.055 18.5 22.375 C16.85 22.045 15.2 21.715 13.5 21.375 Z M63.5 22.375 C63.5 23.695 63.5 25.015 63.5 26.375 C65.48491642 26.10823796 65.48491642 26.10823796 67.5 25.375 C67.83 24.385 68.16 23.395 68.5 22.375 C66.85 22.375 65.2 22.375 63.5 22.375 Z M110.5 23.375 C109.51 23.87 109.51 23.87 108.5 24.375 C108.5 25.035 108.5 25.695 108.5 26.375 C109.49 26.375 110.48 26.375 111.5 26.375 C111.17 25.385 110.84 24.395 110.5 23.375 Z " fill="#334BE9" transform="translate(102.5,280.625)"/>
<path d="M0 0 C0 0.66 0 1.32 0 2 C0.60585937 2.25394531 1.21171875 2.50789062 1.8359375 2.76953125 C4.2813276 4.15996064 5.1734924 5.30421816 6.625 7.6875 C7.02976563 8.33074219 7.43453125 8.97398437 7.8515625 9.63671875 C13.76048146 21.79622885 12.09483914 36.58542633 7.95483398 49.01147461 C6.89518432 51.97748337 5.75661001 54.36508499 4 57 C4.15688424 59.12816413 4.15688424 59.12816413 5 61 C5.99 61.495 5.99 61.495 7 62 C7 62.66 7 63.32 7 64 C7.66 64 8.32 64 9 64 C9 64.66 9 65.32 9 66 C9.66 66 10.32 66 11 66 C13 69 13 69 12.82421875 71.421875 C11.90371616 74.30117219 10.78386833 75.96965341 8.8125 78.25 C8.24144531 78.93578125 7.67039063 79.6215625 7.08203125 80.328125 C4.44671886 82.44428579 2.31920663 82.68075523 -1 83 C-2.14747465 81.37615858 -3.2929291 79.75088944 -4.4375 78.125 C-5.07558594 77.22007812 -5.71367188 76.31515625 -6.37109375 75.3828125 C-8 73 -8 73 -9 71 C-10.134375 71.495 -11.26875 71.99 -12.4375 72.5 C-17.23455934 74.11432141 -21.73973315 74.30391986 -26.75 74.3125 C-27.8491272 74.32023437 -27.8491272 74.32023437 -28.97045898 74.328125 C-33.07372276 74.27566917 -36.30956313 73.82342452 -40 72 C-40 71.34 -40 70.68 -40 70 C-40.59683594 69.90976562 -41.19367188 69.81953125 -41.80859375 69.7265625 C-46.82996303 68.06172349 -49.51224232 61.9418769 -51.8125 57.5 C-56.31585641 44.22694952 -54.61314159 29.10913359 -49.1875 16.3828125 C-45.0328161 8.04611125 -38.68036565 1.67981641 -30 -1.875 C-20.2990912 -4.70443173 -9.2003776 -3.94301897 0 0 Z M-24.5 14.0625 C-30.43866483 21.04043118 -30.49491106 27.52325849 -30.4375 36.375 C-30.45748047 37.46039063 -30.47746094 38.54578125 -30.49804688 39.6640625 C-30.49400394 46.3591589 -29.90936431 52.35633644 -26 58 C-23.3912295 59.2113453 -23.3912295 59.2113453 -21 59 C-21.66 57.68 -22.32 56.36 -23 55 C-23.66 55 -24.32 55 -25 55 C-22.68075117 48.4084507 -22.68075117 48.4084507 -19.5 46.5 C-17 46 -17 46 -14 47 C-12.02714197 43.05428394 -12.81515494 38.08816983 -12.8125 33.75 C-12.79413086 32.19345703 -12.79413086 32.19345703 -12.77539062 30.60546875 C-12.74549472 21.49960068 -12.74549472 21.49960068 -16.9375 13.625 C-20.14588184 11.097184 -21.41496944 11.51734979 -24.5 14.0625 Z " fill="#1A1927" transform="translate(133,197)"/>
<path d="M0 0 C1.70349609 0.00966797 1.70349609 0.00966797 3.44140625 0.01953125 C6.4375 0.1875 6.4375 0.1875 9.4375 1.1875 C9.46475341 2.9165774 9.48400987 4.64578176 9.5 6.375 C9.51160156 7.33792969 9.52320313 8.30085937 9.53515625 9.29296875 C9.4375 12.1875 9.4375 12.1875 8.9453125 14.5390625 C8.25341173 18.14759112 8.24676343 21.71484603 8.25 25.375 C8.24935547 26.12515381 8.24871094 26.87530762 8.24804688 27.64819336 C8.301972 33.33545534 8.92385195 38.68701109 10.4375 44.1875 C11.0975 44.1875 11.7575 44.1875 12.4375 44.1875 C16.08160617 36.89928766 14.56049851 25.94391969 14.5 18 C14.49548828 16.85724609 14.49097656 15.71449219 14.48632812 14.53710938 C14.47468268 11.7538489 14.45832997 8.97070428 14.4375 6.1875 C20.34340691 3.16147268 26.10424187 2.05549866 32.7421875 2.1328125 C33.62632324 2.14070801 34.51045898 2.14860352 35.42138672 2.15673828 C36.41936279 2.17196533 36.41936279 2.17196533 37.4375 2.1875 C37.48740593 6.43756599 37.52345579 10.68747099 37.54736328 14.93774414 C37.55734313 16.37983171 37.57093184 17.82189946 37.58837891 19.26391602 C37.82248129 39.12819167 37.82248129 39.12819167 32.5 47.6875 C31.99597656 48.5228125 31.49195313 49.358125 30.97265625 50.21875 C29.4375 52.1875 29.4375 52.1875 26.4375 53.1875 C26.4375 53.8475 26.4375 54.5075 26.4375 55.1875 C18.40458331 60.07025328 9.77728986 61.19229416 0.5 59.5625 C-5.19474383 57.98758 -8.48667692 54.74146667 -11.8125 49.9375 C-18.30893636 37.2694491 -16.72374291 20.16767507 -12.90234375 6.89453125 C-11.95590927 4.38622129 -11.11216254 2.56578969 -8.87109375 1.0234375 C-5.82851407 -0.07827494 -3.2293915 -0.04041332 0 0 Z " fill="#1A1928" transform="translate(160.5625,207.8125)"/>
<path d="M0 0 C14.48262318 0.15086066 28.93244456 3.06865066 42.75 7.25 C43.06480955 13.12644493 42.96235534 18.16140172 39.75 23.25 C36.6485538 26.54689389 33.38865488 29.55377546 29.75 32.25 C29.09 32.25 28.43 32.25 27.75 32.25 C27.75 32.91 27.75 33.57 27.75 34.25 C27.09 34.25 26.43 34.25 25.75 34.25 C25.75 34.91 25.75 35.57 25.75 36.25 C25.09 36.25 24.43 36.25 23.75 36.25 C23.75 36.91 23.75 37.57 23.75 38.25 C23.09 38.25 22.43 38.25 21.75 38.25 C21.42 39.24 21.09 40.23 20.75 41.25 C20.09 41.25 19.43 41.25 18.75 41.25 C18.09 42.57 17.43 43.89 16.75 45.25 C16.09 45.25 15.43 45.25 14.75 45.25 C14.440625 45.86875 14.13125 46.4875 13.8125 47.125 C13.125 48.5 12.4375 49.875 11.75 51.25 C12.27207031 51.0953125 12.79414063 50.940625 13.33203125 50.78125 C16.37033217 50.11370731 19.33276311 49.94127092 22.4375 49.75 C27.90084688 49.39034394 33.31494341 48.90595511 38.75 48.25 C39.14325819 55.22669157 38.38096039 60.76656189 35.75 67.25 C24.38289517 67.45501792 13.49362996 66.79757732 2.375 64.375 C1.25146118 64.13281738 1.25146118 64.13281738 0.10522461 63.88574219 C-4.62289982 62.80051251 -8.84506099 61.28394282 -13.25 59.25 C-13.70757572 50.55606139 -11.32500477 45.10274089 -5.65234375 38.53515625 C-4.25 37.25 -4.25 37.25 -2.25 37.25 C-1.981875 36.651875 -1.71375 36.05375 -1.4375 35.4375 C-0.25082594 33.25152146 0.84599113 31.83667406 2.75 30.25 C3.41 30.25 4.07 30.25 4.75 30.25 C4.75 29.59 4.75 28.93 4.75 28.25 C5.41 28.25 6.07 28.25 6.75 28.25 C6.75 27.59 6.75 26.93 6.75 26.25 C9.94820693 23.40588027 13.36519135 20.8732267 16.75 18.25 C4.375 18.745 4.375 18.745 -8.25 19.25 C-8.25 0.15566038 -8.25 0.15566038 0 0 Z " fill="#1B1A28" transform="translate(237.25,204.75)"/>
<path d="M0 0 C5.6070656 -0.22885982 10.83720346 -0.43528138 16 2 C29.40160605 15.26053652 37.67232776 46.87533907 38.07421875 65.42578125 C38.03748047 66.70001953 38.03748047 66.70001953 38 68 C33.91799571 69.95226292 30.19689685 71.25758956 25.7421875 72.1015625 C24.40583252 72.35800537 24.40583252 72.35800537 23.04248047 72.61962891 C22.36846191 72.74515137 21.69444336 72.87067383 21 73 C20.32861379 69.73011701 19.66370737 66.45894951 19 63.1875 C18.80921875 62.25873047 18.6184375 61.32996094 18.421875 60.37304688 C18.24140625 59.48037109 18.0609375 58.58769531 17.875 57.66796875 C17.62363281 56.43469849 17.62363281 56.43469849 17.3671875 55.17651367 C17 53 17 53 17 50 C10.73 50.33 4.46 50.66 -2 51 C-2.33 52.65 -2.66 54.3 -3 56 C-3.64239456 57.62275573 -4.32962672 59.22854807 -5.0625 60.8125 C-5.42472656 61.60269531 -5.78695313 62.39289063 -6.16015625 63.20703125 C-6.57587891 64.09455078 -6.57587891 64.09455078 -7 65 C-11.6748832 65.7304505 -14.48348386 63.82584817 -18.328125 61.484375 C-20.39133346 59.6525544 -20.64301131 58.71214346 -21 56 C-20.35083008 53.86865234 -20.35083008 53.86865234 -19.26953125 51.5859375 C-18.68268555 50.31943359 -18.68268555 50.31943359 -18.08398438 49.02734375 C-17.45459961 47.71443359 -17.45459961 47.71443359 -16.8125 46.375 C-9.75594337 31.35282953 -4.11606508 16.09615695 0 0 Z " fill="#F7BD26" transform="translate(341,213)"/>
<path d="M0 0 C1.2684375 -0.00386719 1.2684375 -0.00386719 2.5625 -0.0078125 C4.84698944 0.11666289 6.80991574 0.48622543 9 1.125 C8.87882812 1.74503906 8.75765625 2.36507812 8.6328125 3.00390625 C6.08257743 16.48091773 4.66855779 29.88901347 3.875 43.5625 C3.78825253 44.98766025 3.70101483 46.41279074 3.61328125 47.83789062 C3.40323792 51.26660494 3.19970468 54.69566607 3 58.125 C-1.77092013 59.42429257 -5.96124329 60.38927254 -10.9375 60.3125 C-11.87464844 60.30605469 -12.81179687 60.29960937 -13.77734375 60.29296875 C-16 60.125 -16 60.125 -17 59.125 C-19.47653178 43.11438791 -21.52131334 19.65218686 -16 4.125 C-13.63154857 1.81024142 -12.39862548 1.71096991 -9 1.125 C-8.36835938 0.9496875 -7.73671875 0.774375 -7.0859375 0.59375 C-4.67248149 0.05140034 -2.47232683 -0.00753758 0 0 Z " fill="#181726" transform="translate(218,207.875)"/>
<path d="M0 0 C2.97 0 5.94 0 9 0 C9 1.65 9 3.3 9 5 C11.31 5 13.62 5 16 5 C16.33 6.32 16.66 7.64 17 9 C17.61875 8.195625 18.2375 7.39125 18.875 6.5625 C22.02050578 3.42593032 25.16603855 3.0997747 29.484375 2.84765625 C33.22021944 3.07389528 35.72804444 4.22176328 39 6 C39.33 5.34 39.66 4.68 40 4 C41.24716797 4.03480469 41.24716797 4.03480469 42.51953125 4.0703125 C44.14955078 4.09738281 44.14955078 4.09738281 45.8125 4.125 C46.89144531 4.14820313 47.97039062 4.17140625 49.08203125 4.1953125 C52.19402868 4.23023717 52.19402868 4.23023717 55 2 C58.050095 2.15250475 59.52817988 2.57698886 61.8125 4.625 C63.41568775 7.8313755 63.20379759 10.46750852 63 14 C59.50615721 15.16461426 56.66344611 15.13568319 53 15 C52.505 14.505 52.505 14.505 52 14 C51.67 19.61 51.34 25.22 51 31 C48.03 31 45.06 31 42 31 C41.01 27.37 40.02 23.74 39 20 C38.13375 21.8871875 38.13375 21.8871875 37.25 23.8125 C35.69936855 27.19066138 34.25381181 29.12746887 31 31 C25.91530834 31.84113379 21.41485183 31.93320014 17.0625 29.0625 C16.381875 28.381875 15.70125 27.70125 15 27 C12.92309422 26.03955898 12.92309422 26.03955898 11 26 C10.34 26.66 9.68 27.32 9 28 C6.375 28.125 6.375 28.125 4 28 C2.9375 25.625 2.9375 25.625 2 23 C2.33 22.34 2.66 21.68 3 21 C2.01 21 1.02 21 0 21 C-0.66666667 16.33333333 -1.33333333 11.66666667 -2 7 C-1.34 6.67 -0.68 6.34 0 6 C0.99 6.33 1.98 6.66 3 7 C3.33 5.68 3.66 4.36 4 3 C4.66 3 5.32 3 6 3 C6 2.34 6 1.68 6 1 C3.69 1.66 1.38 2.32 -1 3 C-0.67 2.01 -0.34 1.02 0 0 Z M27 10 C24.51104987 14.6850826 24.99023248 17.9511624 26 23 C26.66 23.33 27.32 23.66 28 24 C29.18005182 20.31233808 29.20993972 16.84889483 29 13 C28.34 12.01 27.68 11.02 27 10 Z M8 12 C8 13.98 8 15.96 8 18 C10.31 18.66 12.62 19.32 15 20 C15.33 16.7 15.66 13.4 16 10 C13.36423317 10 10.51486589 11.26840265 8 12 Z " fill="#243DF0" transform="translate(229,283)"/>
<path d="M0 0 C1.56427734 0.00966797 1.56427734 0.00966797 3.16015625 0.01953125 C5.9375 0.1875 5.9375 0.1875 8.9375 1.1875 C8.9626245 6.83935235 8.98055591 12.49117066 8.99243164 18.14306641 C8.99739368 20.05713468 9.00416546 21.97119931 9.01293945 23.88525391 C9.06859776 36.35926248 8.79052192 48.74126591 7.9375 61.1875 C3.07698404 63.77977518 -1.71521133 63.37439553 -7.0625 63.1875 C-7.11784912 61.96756348 -7.17319824 60.74762695 -7.23022461 59.49072266 C-7.43811558 54.92451443 -7.64957451 50.35847698 -7.86206055 45.79248047 C-7.9531894 43.82377465 -8.04337635 41.85502498 -8.13256836 39.88623047 C-8.26162494 37.04121789 -8.39417261 34.19638511 -8.52734375 31.3515625 C-8.56593002 30.48447662 -8.6045163 29.61739075 -8.64427185 28.72402954 C-8.88981488 23.56252148 -9.29683384 18.4428645 -9.85302734 13.30529785 C-10.22086626 9.58639492 -10.12270065 5.91994053 -10.0625 2.1875 C-6.64075111 0.10146996 -3.9703202 -0.05411837 0 0 Z " fill="#F8BD27" transform="translate(390.0625,214.8125)"/>
<path d="M0 0 C0.66 0 1.32 0 2 0 C1 2 0 4 -1 6 C-0.47792969 5.8453125 0.04414063 5.690625 0.58203125 5.53125 C3.62033217 4.86370731 6.58276311 4.69127092 9.6875 4.5 C15.15084688 4.14034394 20.56494341 3.65595511 26 3 C26.39325819 9.97669157 25.63096039 15.51656189 23 22 C1.70121951 22.38414634 1.70121951 22.38414634 -8 19 C-8 18.01 -8 17.02 -8 16 C-7.34 15.67 -6.68 15.34 -6 15 C-4.15574011 12.73183699 -4.15574011 12.73183699 -3 10 C-3.69140351 7.69712207 -3.69140351 7.69712207 -5 6 C-4.34 6 -3.68 6 -3 6 C-2.67 4.68 -2.34 3.36 -2 2 C-1.34 2 -0.68 2 0 2 C0 1.34 0 0.68 0 0 Z " fill="#22212F" transform="translate(250,250)"/>
<path d="M0 0 C0.12375 0.639375 0.2475 1.27875 0.375 1.9375 C0.58125 2.618125 0.7875 3.29875 1 4 C2.9254644 5.1490712 2.9254644 5.1490712 5 5 C6.74939391 13.30962108 6.39973239 20.90090318 4 29 C-11.06153846 27.35692308 -11.06153846 27.35692308 -16.125 23.8125 C-18 21 -18 21 -18.25 17.4375 C-16.92773269 13.80126488 -16.5873716 13.37159122 -13.4375 11.5625 C-12.303125 11.046875 -11.16875 10.53125 -10 10 C-10.99 9.67 -11.98 9.34 -13 9 C-13.625 6.6875 -13.625 6.6875 -14 4 C-12 1 -12 1 -8.6875 0.3125 C-5.75903238 0.06432478 -2.9340986 -0.08891208 0 0 Z M-7 6 C-7.33 7.65 -7.66 9.3 -8 11 C-6.68 11 -5.36 11 -4 11 C-4 9.35 -4 7.7 -4 6 C-4.99 6 -5.98 6 -7 6 Z M-5 17 C-5.99 17.495 -5.99 17.495 -7 18 C-7 18.66 -7 19.32 -7 20 C-6.01 20 -5.02 20 -4 20 C-4.33 19.01 -4.66 18.02 -5 17 Z " fill="#2640F1" transform="translate(218,287)"/>
<path d="M0 0 C0.33 1.32 0.66 2.64 1 4 C5.29 3.34 9.58 2.68 14 2 C14 2.66 14 3.32 14 4 C12.68 4.33 11.36 4.66 10 5 C10 5.66 10 6.32 10 7 C10.66 7.66 11.32 8.32 12 9 C12 9.66 12 10.32 12 11 C7.05 11.33 2.1 11.66 -3 12 C-3.28875 14.083125 -3.5775 16.16625 -3.875 18.3125 C-4.75 24.625 -4.75 24.625 -7 28 C-11.50752269 29.06059357 -14.61125071 26.74803528 -18.328125 24.484375 C-20 23 -20 23 -20.91796875 21.25 C-21.04482269 17.77057775 -19.57914451 15.34519287 -18.0625 12.25 C-17.21365234 10.49429687 -17.21365234 10.49429687 -16.34765625 8.703125 C-15.90292969 7.81109375 -15.45820313 6.9190625 -15 6 C-14.01 6 -13.02 6 -12 6 C-12 5.34 -12 4.68 -12 4 C-8.53991858 1.69327905 -6.07518521 1.51865994 -2 1 C-1.34 0.67 -0.68 0.34 0 0 Z " fill="#FABE24" transform="translate(341,250)"/>
<path d="M0 0 C1.5159375 -0.02126953 1.5159375 -0.02126953 3.0625 -0.04296875 C6.0885919 0.19445069 8.26227757 0.91425777 11 2.1875 C10.40984815 7.69558397 9.43336231 12.83628069 8 18.1875 C4.01161858 19.50649228 -0.03837124 19.33462869 -4.1875 19.3125 C-4.92419922 19.31636719 -5.66089844 19.32023437 -6.41992188 19.32421875 C-11.87331509 19.31418491 -11.87331509 19.31418491 -13 18.1875 C-13.12653198 15.69511431 -13.18519825 13.24279559 -13.1875 10.75 C-13.19974609 10.05583984 -13.21199219 9.36167969 -13.22460938 8.64648438 C-13.22989842 6.82529099 -13.12169207 5.0046308 -13 3.1875 C-9.44362352 -0.36887648 -4.82348811 0.03076204 0 0 Z " fill="#272633" transform="translate(218,184.8125)"/>
<path d="M0 0 C3.46754912 0.2972185 4.98469519 0.98782572 7.75 3.1875 C10.21461548 6.26826936 10.72903553 8.11617586 11 12 C11.33 10.68 11.66 9.36 12 8 C12.66 8 13.32 8 14 8 C14.226875 7.360625 14.45375 6.72125 14.6875 6.0625 C16 4 16 4 18.625 3.25 C19.800625 3.12625 19.800625 3.12625 21 3 C21 4.98 21 6.96 21 9 C22.65 8.67 24.3 8.34 26 8 C26 8.99 26 9.98 26 11 C24.02 11.33 22.04 11.66 20 12 C19.91237879 15.15436364 19.83486886 18.03421164 21 21 C21.99 21.33 22.98 21.66 24 22 C23.34 22.66 22.68 23.32 22 24 C18.875 23.625 18.875 23.625 16 23 C16 22.34 16 21.68 16 21 C15.34 21 14.68 21 14 21 C12.375 19.5 12.375 19.5 11 18 C10.01 20.475 10.01 20.475 9 23 C6.36 23 3.72 23 1 23 C0.97301578 20.56242587 0.95316901 18.12515085 0.9375 15.6875 C0.92912109 14.99720703 0.92074219 14.30691406 0.91210938 13.59570312 C0.89692094 10.4516975 0.99806673 8.00579981 2 5 C0.68 4.34 -0.64 3.68 -2 3 C-1.34 2.01 -0.68 1.02 0 0 Z " fill="#253EF3" transform="translate(144,289)"/>
<path d="M0 0 C0.33 0.99 0.66 1.98 1 3 C1.99 3 2.98 3 4 3 C4 4.98 4 6.96 4 9 C2.35 9 0.7 9 -1 9 C-1 8.34 -1 7.68 -1 7 C-1.66 7 -2.32 7 -3 7 C-3.33 5.68 -3.66 4.36 -4 3 C-5.32 3 -6.64 3 -8 3 C-8 3.99 -8 4.98 -8 6 C-8.99 6.495 -8.99 6.495 -10 7 C-10.0269501 9.93756119 -10.04681474 12.87487555 -10.0625 15.8125 C-10.07087891 16.64587891 -10.07925781 17.47925781 -10.08789062 18.33789062 C-10.09111328 19.14033203 -10.09433594 19.94277344 -10.09765625 20.76953125 C-10.10289307 21.50792236 -10.10812988 22.24631348 -10.11352539 23.00708008 C-10.07523213 25.21057409 -10.07523213 25.21057409 -9 28 C-7.02 28 -5.04 28 -3 28 C-3.33 29.32 -3.66 30.64 -4 32 C-5.41750563 31.88490339 -6.83401169 31.75746342 -8.25 31.625 C-9.03890625 31.55539062 -9.8278125 31.48578125 -10.640625 31.4140625 C-13.12153402 30.97867118 -14.86572661 30.32915687 -17 29 C-19.43958904 22.29113014 -18.46295561 13.58633074 -16 7 C-13 1.5 -13 1.5 -10.25 0.125 C-6.82541483 -0.06525473 -3.43009515 -0.05716825 0 0 Z " fill="#223DF9" transform="translate(98,280)"/>
<path d="M0 0 C2.31 0 4.62 0 7 0 C8.23402862 4.77092956 8.11265112 9.42469446 8.0625 14.3125 C8.05798828 15.14845703 8.05347656 15.98441406 8.04882812 16.84570312 C8.03710548 18.89716649 8.01917203 20.94859273 8 23 C2.25 23.125 2.25 23.125 0 22 C-1.04479377 17.58277063 -1.13462629 13.27435478 -1.125 8.75 C-1.12757813 7.52796875 -1.13015625 6.3059375 -1.1328125 5.046875 C-1 2 -1 2 0 0 Z " fill="#233CF7" transform="translate(271,289)"/>
<path d="M0 0 C0.99 0.33 1.98 0.66 3 1 C4.1875 3.5625 4.1875 3.5625 5 6 C4.01 6.495 4.01 6.495 3 7 C3 12.94 3 18.88 3 25 C0.36 25 -2.28 25 -5 25 C-5.02712066 23.56260487 -5.04645067 22.12506137 -5.0625 20.6875 C-5.07410156 19.88699219 -5.08570313 19.08648437 -5.09765625 18.26171875 C-5 16 -5 16 -4 13 C-4.02998529 11.51981719 -4.09530492 10.04011306 -4.1875 8.5625 C-4.25036809 5.05331729 -4.24900367 4.31903596 -2 1.4375 C-1.34 0.963125 -0.68 0.48875 0 0 Z " fill="#233CF5" transform="translate(136,288)"/>
<path d="M0 0 C1.94873426 3.08549591 2.22280685 5.77148909 2.5 9.375 C-0.71451269 10.98225635 -3.93612536 10.43248185 -7.5 10.375 C-8.16 8.725 -8.82 7.075 -9.5 5.375 C-10.49 5.87 -10.49 5.87 -11.5 6.375 C-13.27122633 11.86580161 -13.31570404 18.92788787 -11.5 24.375 C-8.22226496 23.62349977 -8.22226496 23.62349977 -6.5 20.375 C-6.45745644 22.37454746 -6.45919217 24.37541636 -6.5 26.375 C-7.5 27.375 -7.5 27.375 -10.4375 27.625 C-11.448125 27.5425 -12.45875 27.46 -13.5 27.375 C-15.56723714 24.27414429 -15.74497423 23.64568319 -15.6953125 20.14453125 C-15.68886719 19.34208984 -15.68242188 18.53964844 -15.67578125 17.71289062 C-15.65902344 16.87951172 -15.64226562 16.04613281 -15.625 15.1875 C-15.61597656 14.34251953 -15.60695313 13.49753906 -15.59765625 12.62695312 C-15.57410703 10.54284757 -15.53823647 8.45888783 -15.5 6.375 C-14.51 6.045 -13.52 5.715 -12.5 5.375 C-12.5 4.385 -12.5 3.395 -12.5 2.375 C-11.18 2.375 -9.86 2.375 -8.5 2.375 C-8.17 3.695 -7.84 5.015 -7.5 6.375 C-6.84 6.375 -6.18 6.375 -5.5 6.375 C-5.5 7.035 -5.5 7.695 -5.5 8.375 C-3.85 8.375 -2.2 8.375 -0.5 8.375 C-0.5 6.395 -0.5 4.415 -0.5 2.375 C-1.49 2.375 -2.48 2.375 -3.5 2.375 C-3.83 1.715 -4.16 1.055 -4.5 0.375 C-8.46 0.375 -12.42 0.375 -16.5 0.375 C-15.5 -1.625 -15.5 -1.625 -13.71875 -2.26171875 C-8.88909852 -3.05248915 -4.13275958 -2.68629373 0 0 Z " fill="#4C61DE" transform="translate(102.5,280.625)"/>
<path d="M0 0 C0.33 0.66 0.66 1.32 1 2 C0.360625 2.86625 -0.27875 3.7325 -0.9375 4.625 C-4.85482203 11.03516332 -4.6894592 18.77706242 -3.5 26.0625 C-3.335 26.701875 -3.17 27.34125 -3 28 C1.13579601 29.57554134 4.56242357 30.50427005 9 30 C9.66 29.01 10.32 28.02 11 27 C11.99 27.66 12.98 28.32 14 29 C14 29.99 14 30.98 14 32 C16.31 32 18.62 32 21 32 C21 30.35 21 28.7 21 27 C21.33 27.66 21.66 28.32 22 29 C23.32 28.67 24.64 28.34 26 28 C26.495 29.485 26.495 29.485 27 31 C26.01 31.33 25.02 31.66 24 32 C23.67 31.67 23.34 31.34 23 31 C22.01 32.485 22.01 32.485 21 34 C17.375 34.6875 17.375 34.6875 14 35 C13.34 33.68 12.68 32.36 12 31 C11.34 31.66 10.68 32.32 10 33 C5.79730192 34.09815097 2.16833843 34.48257457 -1.875 32.8125 C-6.28597424 29.05019845 -7.54077978 26.24100354 -8.00390625 20.50390625 C-7.99366447 13.9389221 -6.49460868 7.59137388 -3 2 C-2.01 1.34 -1.02 0.68 0 0 Z " fill="#4E5FDF" transform="translate(85,281)"/>
<path d="M0 0 C2.64 0 5.28 0 8 0 C8.90249856 5.14089921 8.97986395 9.69726374 8.5625 14.9375 C8.51029297 15.62134766 8.45808594 16.30519531 8.40429688 17.00976562 C8.27630102 18.67371169 8.13912281 20.3369473 8 22 C6.02 22.33 4.04 22.66 2 23 C2 20.36 2 17.72 2 15 C1.34 15 0.68 15 0 15 C0.66 12.69 1.32 10.38 2 8 C1.34 8 0.68 8 0 8 C0 5.36 0 2.72 0 0 Z " fill="#223DFA" transform="translate(181,289)"/>
<path d="M0 0 C1.05445313 -0.00515625 2.10890625 -0.0103125 3.1953125 -0.015625 C5.875 0.25 5.875 0.25 7.875 2.25 C-0.54 2.745 -0.54 2.745 -9.125 3.25 C-8.815625 4.631875 -8.50625 6.01375 -8.1875 7.4375 C-7.10683066 12.76474321 -6.68767616 18.04417753 -6.37109375 23.46484375 C-6.22597396 26.33291325 -6.22597396 26.33291325 -5.125 29.25 C-5.0403183 31.76368055 -5.00898115 34.24869374 -5.02734375 36.76171875 C-5.0287587 37.48994339 -5.03017365 38.21816803 -5.03163147 38.96846008 C-5.03722341 41.29151539 -5.04977438 43.61447388 -5.0625 45.9375 C-5.06751604 47.51367048 -5.07207877 49.08984248 -5.07617188 50.66601562 C-5.0871902 54.52738098 -5.10444926 58.38867408 -5.125 62.25 C0.815 61.755 0.815 61.755 6.875 61.25 C3.00709997 63.18395001 1.7249541 63.48289353 -2.375 63.375 C-3.71304687 63.34792969 -3.71304687 63.34792969 -5.078125 63.3203125 C-5.75359375 63.29710937 -6.4290625 63.27390625 -7.125 63.25 C-7.18034912 62.03006348 -7.23569824 60.81012695 -7.29272461 59.55322266 C-7.50061558 54.98701443 -7.71207451 50.42097698 -7.92456055 45.85498047 C-8.0156894 43.88627465 -8.10587635 41.91752498 -8.19506836 39.94873047 C-8.32412494 37.10371789 -8.45667261 34.25888511 -8.58984375 31.4140625 C-8.62843002 30.54697662 -8.6670163 29.67989075 -8.70677185 28.78652954 C-8.95231488 23.62502148 -9.35933384 18.5053645 -9.91552734 13.36779785 C-10.28336626 9.64889492 -10.18520065 5.98244053 -10.125 2.25 C-6.69875115 0.16445722 -3.97589184 -0.01953755 0 0 Z " fill="#DAAD3D" transform="translate(390.125,214.75)"/>
<path d="M0 0 C2.5 1.5625 2.5 1.5625 4 4 C4.31640428 6.75799065 4.18623146 9.20652812 4 12 C3.01 12.495 3.01 12.495 2 13 C1.855625 13.66 1.71125 14.32 1.5625 15 C1.376875 15.66 1.19125 16.32 1 17 C0.01 17.33 -0.98 17.66 -2 18 C-2.33 18.99 -2.66 19.98 -3 21 C-3.99 21 -4.98 21 -6 21 C-5.835 20.360625 -5.67 19.72125 -5.5 19.0625 C-4.67034612 13.98086997 -4.36160326 8.91519022 -6 4 C-6.66 3.835 -7.32 3.67 -8 3.5 C-8.66 3.335 -9.32 3.17 -10 3 C-10.33 2.01 -10.66 1.02 -11 0 C-7.1441884 -1.28527053 -3.87689266 -0.98287419 0 0 Z " fill="#233DFA" transform="translate(264,289)"/>
<path d="M0 0 C0.66 0 1.32 0 2 0 C4.37268755 20.36364847 5.19109839 40.50249251 5 61 C7.64 61 10.28 61 13 61 C13 61.33 13 61.66 13 62 C12.37351562 62.03738281 11.74703125 62.07476562 11.1015625 62.11328125 C10.28429687 62.17902344 9.46703125 62.24476563 8.625 62.3125 C7.81289063 62.37050781 7.00078125 62.42851562 6.1640625 62.48828125 C3.62078662 62.82990528 3.62078662 62.82990528 2 66 C0.68 65.67 -0.64 65.34 -2 65 C-0.515 64.505 -0.515 64.505 1 64 C0.77183594 62.96359375 0.54367187 61.9271875 0.30859375 60.859375 C0.01776833 59.4896811 -0.27257079 58.11988388 -0.5625 56.75 C-0.71396484 56.06808594 -0.86542969 55.38617188 -1.02148438 54.68359375 C-1.81149193 50.89890641 -1.95840947 48.83363787 -1 45 C-0.01 48.96 0.98 52.92 2 57 C3.14155998 30.18974475 3.14155998 30.18974475 -0.59594727 3.87939453 C-1 2 -1 2 0 0 Z " fill="#301F07" transform="translate(378,217)"/>
<path d="M0 0 C2.93774463 -0.05390357 5.87450232 -0.0936255 8.8125 -0.125 C10.06256836 -0.15013672 10.06256836 -0.15013672 11.33789062 -0.17578125 C12.14033203 -0.18222656 12.94277344 -0.18867188 13.76953125 -0.1953125 C14.50792236 -0.20578613 15.24631348 -0.21625977 16.00708008 -0.22705078 C18 0 18 0 21 2 C21.29340919 4.80999426 21.39541954 7.39585324 21.36328125 10.20703125 C21.36455017 11.03639191 21.36581909 11.86575256 21.36712646 12.72024536 C21.36542792 15.41800467 21.34020219 18.1148915 21.3125 20.8125 C21.30320613 22.6472163 21.29401008 24.48193311 21.28491211 26.31665039 C21.01894481 60.98105519 21.01894481 60.98105519 18 64 C16.33382885 64.04063832 14.66611905 64.042721 13 64 C14.32 63.34 15.64 62.68 17 62 C17.84207867 48.6279973 18.2786691 35.26950132 18.5625 21.875 C18.60584814 19.93358767 18.64946657 17.99218135 18.69335938 16.05078125 C18.79867463 11.36725067 18.90038184 6.68365507 19 2 C16.58325776 1.97294692 14.1668206 1.95313562 11.75 1.9375 C11.06808594 1.92912109 10.38617188 1.92074219 9.68359375 1.91210938 C6.30657446 1.89571608 3.22708361 1.94371232 0 3 C0 2.01 0 1.02 0 0 Z " fill="#271804" transform="translate(380,214)"/>
<path d="M0 0 C1.9375 1.5625 1.9375 1.5625 3 3 C2.21625 3.20625 1.4325 3.4125 0.625 3.625 C-2.30916286 4.80676612 -2.30916286 4.80676612 -3.3125 8.125 C-3.539375 9.07375 -3.76625 10.0225 -4 11 C-5.65 11.33 -7.3 11.66 -9 12 C-9.33 10.35 -9.66 8.7 -10 7 C-11.94074861 7.27617533 -11.94074861 7.27617533 -14 8 C-14.99 9.485 -14.99 9.485 -16 11 C-16.66 11 -17.32 11 -18 11 C-16.52307692 5.33846154 -16.52307692 5.33846154 -13.875 3.625 C-13.25625 3.41875 -12.6375 3.2125 -12 3 C-12 2.34 -12 1.68 -12 1 C-7.67899104 -1.22597431 -4.69682975 -1.13071827 0 0 Z M-6 6 C-6.33 7.32 -6.66 8.64 -7 10 C-6.34 9.67 -5.68 9.34 -5 9 C-5.33 8.01 -5.66 7.02 -6 6 Z " fill="#485BE5" transform="translate(174,286)"/>
<path d="M0 0 C4.3177458 0.50797009 8.03302114 1.19682779 12 3 C12 3.66 12 4.32 12 5 C12.66 5 13.32 5 14 5 C13.63644809 7.5448634 12.96332668 9.05348193 11.5 11.1875 C7.14280878 14.34646363 2.1462436 14.30660623 -3.0625 13.5625 C-3.701875 13.376875 -4.34125 13.19125 -5 13 C-5 12.67 -5 12.34 -5 12 C-2.36 11.67 0.28 11.34 3 11 C2.505 10.484375 2.01 9.96875 1.5 9.4375 C-0.49649241 6.19319983 -0.21564385 3.73782666 0 0 Z M1 1 C1.33 2.65 1.66 4.3 2 6 C3.32 5.34 4.64 4.68 6 4 C6 3.34 6 2.68 6 2 C4.35 1.67 2.7 1.34 1 1 Z " fill="#4F61E3" transform="translate(115,301)"/>
<path d="M0 0 C0.7425 0.0825 1.485 0.165 2.25 0.25 C1.92 2.56 1.59 4.87 1.25 7.25 C3.56 7.58 5.87 7.91 8.25 8.25 C8.58 6.93 8.91 5.61 9.25 4.25 C10.75 5.4375 10.75 5.4375 12.25 7.25 C12.4375 9.9375 12.4375 9.9375 12.25 12.25 C10.25045254 12.29254356 8.24958364 12.29080783 6.25 12.25 C5.92 11.92 5.59 11.59 5.25 11.25 C3.56816052 11.01712992 1.8787584 10.83735834 0.1875 10.6875 C-0.73160156 10.60371094 -1.65070313 10.51992188 -2.59765625 10.43359375 C-3.30792969 10.37300781 -4.01820313 10.31242187 -4.75 10.25 C-5.41 8.27 -6.07 6.29 -6.75 4.25 C-3.42692308 0.31153846 -3.42692308 0.31153846 0 0 Z " fill="#233DF7" transform="translate(208.75,300.75)"/>
<path d="M0 0 C2.97 0.495 2.97 0.495 6 1 C6 2.32 6 3.64 6 5 C6.66 5.33 7.32 5.66 8 6 C7.67 11.94 7.34 17.88 7 24 C9.64 24 12.28 24 15 24 C15 24.33 15 24.66 15 25 C13.54176788 25.0270043 12.08339325 25.04639787 10.625 25.0625 C9.81289062 25.07410156 9.00078125 25.08570313 8.1640625 25.09765625 C6 25 6 25 4 24 C4.33 18.72 4.66 13.44 5 8 C2.18228157 12.22657765 2.57913421 16.44840173 2.43359375 21.37109375 C2.35453602 23.25129285 2.18434812 25.12719073 2 27 C-0.70879335 28.35439668 -3.00933268 28.06501451 -6 28 C-6.33 27.01 -6.66 26.02 -7 25 C-4.36 25 -1.72 25 1 25 C0.98839844 23.73542969 0.97679687 22.47085937 0.96484375 21.16796875 C0.95546434 19.50781398 0.9463643 17.84765761 0.9375 16.1875 C0.92912109 15.35412109 0.92074219 14.52074219 0.91210938 13.66210938 C0.90888672 12.85966797 0.90566406 12.05722656 0.90234375 11.23046875 C0.89710693 10.49207764 0.89187012 9.75368652 0.88647461 8.99291992 C1 7 1 7 2 4 C1.12516085 1.83284443 1.12516085 1.83284443 0 0 Z " fill="#374CDA" transform="translate(138,288)"/>
<path d="M0 0 C0.33 0 0.66 0 1 0 C1 1.98 1 3.96 1 6 C-1.31 6 -3.62 6 -6 6 C-6 6.66 -6 7.32 -6 8 C-7.65 8.66 -9.3 9.32 -11 10 C-10.67 12.31 -10.34 14.62 -10 17 C-9.03900391 17.07347656 -9.03900391 17.07347656 -8.05859375 17.1484375 C-2.78803915 17.6040145 1.96986288 18.3597379 7 20 C7.33 18.35 7.66 16.7 8 15 C9.09658936 18.28976808 8.79953138 19.71303767 8 23 C-7.06153846 21.35692308 -7.06153846 21.35692308 -12.125 17.8125 C-14 15 -14 15 -14.3125 11.4375 C-12.91019896 7.7648068 -12.51274906 7.28924949 -9.25 5.5 C-5.84172006 4.05332003 -3.57177526 3.66058428 0 5 C0 3.35 0 1.7 0 0 Z " fill="#7885E4" transform="translate(214,293)"/>
<path d="M0 0 C3.89449703 0.30746029 5.99455496 1.61637118 9 4 C9.66 4 10.32 4 11 4 C11 3.34 11 2.68 11 2 C12.57925975 1.60819892 14.16368794 1.23719264 15.75 0.875 C16.63171875 0.66617187 17.5134375 0.45734375 18.421875 0.2421875 C21 0 21 0 25 2 C18.565 2.495 18.565 2.495 12 3 C11.67 5.64 11.34 8.28 11 11 C11.99 11.33 12.98 11.66 14 12 C13.21625 11.814375 12.4325 11.62875 11.625 11.4375 C9.02910225 10.74037734 9.02910225 10.74037734 7 12 C6.01 9.69 5.02 7.38 4 5 C1.36 5 -1.28 5 -4 5 C-4 4.34 -4 3.68 -4 3 C-7.3 3 -10.6 3 -14 3 C-14.33 3.99 -14.66 4.98 -15 6 C-15 4.68 -15 3.36 -15 2 C-14.08476562 2.02320313 -13.16953125 2.04640625 -12.2265625 2.0703125 C-10.44378906 2.09738281 -10.44378906 2.09738281 -8.625 2.125 C-6.84996094 2.15980469 -6.84996094 2.15980469 -5.0390625 2.1953125 C-1.88846183 2.32866229 -1.88846183 2.32866229 0 0 Z " fill="#596BD8" transform="translate(194,285)"/>
<path d="M0 0 C-0.33 0.66 -0.66 1.32 -1 2 C-1.66 2 -2.32 2 -3 2 C-3 1.34 -3 0.68 -3 0 C-4.27875 -0.020625 -5.5575 -0.04125 -6.875 -0.0625 C-7.59429687 -0.07410156 -8.31359375 -0.08570313 -9.0546875 -0.09765625 C-11.08185404 -0.12649242 -11.08185404 -0.12649242 -13 1 C-13 1.66 -13 2.32 -13 3 C-11.35 3.33 -9.7 3.66 -8 4 C-7.07132926 6.78601223 -6.83657783 8.61066089 -6.8125 11.5 C-6.79832031 12.2734375 -6.78414063 13.046875 -6.76953125 13.84375 C-7 16 -7 16 -9 19 C-11.125 19.6875 -11.125 19.6875 -13 20 C-13 18.02 -13 16.04 -13 14 C-12.34 14.99 -11.68 15.98 -11 17 C-9.83538574 13.50615721 -9.86431681 10.66344611 -10 7 C-10.33 6.67 -10.66 6.34 -11 6 C-11.99 7.485 -11.99 7.485 -13 9 C-13.66 6.69 -14.32 4.38 -15 2 C-15.99 2.66 -16.98 3.32 -18 4 C-18.99 3.67 -19.98 3.34 -21 3 C-16.77649528 -1.70619098 -16.77649528 -1.70619098 -13.6875 -2.875 C-8.65048532 -3.10927975 -4.29514703 -2.86343135 0 0 Z " fill="#5566E7" transform="translate(267,289)"/>
<path d="M0 0 C2.80178062 3.2334275 3.74124175 6.10448769 4.6875 10.25 C5.06455078 11.86648437 5.06455078 11.86648437 5.44921875 13.515625 C5.63097656 14.33546875 5.81273437 15.1553125 6 16 C2.37 16.33 -1.26 16.66 -5 17 C-3.18181818 3.18181818 -3.18181818 3.18181818 0 0 Z " fill="#322108" transform="translate(349,235)"/>
<path d="M0 0 C2 1 2 1 3 3 C5.02463255 3.65213292 5.02463255 3.65213292 7 4 C7 6.31 7 8.62 7 11 C6.01 10.34 5.02 9.68 4 9 C3.01 9 2.02 9 1 9 C0.67 8.34 0.34 7.68 0 7 C0.33 6.34 0.66 5.68 1 5 C-0.65 5.66 -2.3 6.32 -4 7 C-4 9.31 -4 11.62 -4 14 C-4.66 14 -5.32 14 -6 14 C-6 15.98 -6 17.96 -6 20 C-6.66 20 -7.32 20 -8 20 C-8 16.7 -8 13.4 -8 10 C-11.3 10 -14.6 10 -18 10 C-18 9.67 -18 9.34 -18 9 C-17.16855469 8.98582031 -16.33710937 8.97164063 -15.48046875 8.95703125 C-14.39378906 8.90933594 -13.30710937 8.86164063 -12.1875 8.8125 C-11.10855469 8.77769531 -10.02960938 8.74289062 -8.91796875 8.70703125 C-5.80623134 8.28552997 -5.80623134 8.28552997 -4.21875 5.5625 C-3.8165625 4.716875 -3.414375 3.87125 -3 3 C-1.3125 1.1875 -1.3125 1.1875 0 0 Z " fill="#4E61E7" transform="translate(113,287)"/>
<path d="M0 0 C1.8125 1.625 1.8125 1.625 3 4 C3.1875 7.75 3.1875 7.75 3 11 C-0.50147041 12.1671568 -3.32670036 12.13357453 -7 12 C-7.66 11.67 -8.32 11.34 -9 11 C-8.875 9.125 -8.875 9.125 -8 7 C-4.9375 5.75 -4.9375 5.75 -2 5 C-2 3.68 -2 2.36 -2 1 C-5.465 2.485 -5.465 2.485 -9 4 C-6.82064942 -0.82570486 -5.16438469 -1.63748783 0 0 Z " fill="#4F62E4" transform="translate(289,286)"/>
<path d="M0 0 C1.98 0 3.96 0 6 0 C6.66 4.29 7.32 8.58 8 13 C4 14 4 14 0.75 12.0625 C-0.1575 11.381875 -1.065 10.70125 -2 10 C-1.34 6.7 -0.68 3.4 0 0 Z " fill="#233DF9" transform="translate(97,298)"/>
<path d="M0 0 C5.75 1.625 5.75 1.625 8 5 C2.49319213 10.97881997 2.49319213 10.97881997 -2 12 C-6.91174816 12.15237175 -10.08727081 11.65716502 -14.125 8.75 C-16 6 -16 6 -15.8125 3.1875 C-15.544375 2.465625 -15.27625 1.74375 -15 1 C-13 4.75 -13 4.75 -13 7 C-12.34 7 -11.68 7 -11 7 C-11 7.66 -11 8.32 -11 9 C-9.7625 8.979375 -8.525 8.95875 -7.25 8.9375 C-4.3359175 8.93233319 -1.79046673 9.06984442 1 10 C1 9.34 1 8.68 1 8 C1.99 8 2.98 8 4 8 C3.34 7.01 2.68 6.02 2 5 C2 4.01 2 3.02 2 2 C1.34 2 0.68 2 0 2 C0 2.99 0 3.98 0 5 C-1.65 5 -3.3 5 -5 5 C-3.35 3.35 -1.7 1.7 0 0 Z " fill="#5F70DC" transform="translate(171,303)"/>
<path d="M0 0 C2 0 2 0 3.51953125 1.21875 C5.21562873 3.2594372 5.89247484 4.97611062 6.6875 7.5 C6.93886719 8.2734375 7.19023437 9.046875 7.44921875 9.84375 C8 12 8 12 8 15 C8.66 15 9.32 15 10 15 C10 16.65 10 18.3 10 20 C10.66 20 11.32 20 12 20 C12 20.99 12 21.98 12 23 C14.475 23.99 14.475 23.99 17 25 C16.67 25.66 16.34 26.32 16 27 C15.67 27 15.34 27 15 27 C15 30.3 15 33.6 15 37 C13.20984192 34.31476288 12.63423898 32.99418187 11.875 30 C9.60907771 22.07514227 6.12027502 14.58956502 2.86669922 7.03271484 C1.87337912 4.70302944 0.92323346 2.35831137 0 0 Z " fill="#2C1A07" transform="translate(359,217)"/>
<path d="M0 0 C2 1 2 1 2.625 2.5625 C3.16368951 6.06398181 3.05903219 9.45806833 3 13 C1.02 13.33 -0.96 13.66 -3 14 C-3.33 12.35 -3.66 10.7 -4 9 C-3.34 9 -2.68 9 -2 9 C-1.67 7.35 -1.34 5.7 -1 4 C-2.134375 3.71125 -3.26875 3.4225 -4.4375 3.125 C-5.613125 2.75375 -6.78875 2.3825 -8 2 C-8.33 1.34 -8.66 0.68 -9 0 C-5.90914327 -1.54542837 -3.32167685 -0.59315658 0 0 Z " fill="#243CF1" transform="translate(125,286)"/>
<path d="M0 0 C3.125 -0.1875 3.125 -0.1875 6 0 C6 0.66 6 1.32 6 2 C6.66 2 7.32 2 8 2 C8 2.66 8 3.32 8 4 C8.99 4.33 9.98 4.66 11 5 C10.67 7.31 10.34 9.62 10 12 C7.36 12 4.72 12 2 12 C2 11.67 2 11.34 2 11 C4.31 11 6.62 11 9 11 C9 9.02 9 7.04 9 5 C7.68 5 6.36 5 5 5 C5 6.32 5 7.64 5 9 C2.03 8.505 2.03 8.505 -1 8 C-1.625 5.6875 -1.625 5.6875 -2 3 C-1.34 2.01 -0.68 1.02 0 0 Z " fill="#2E45E0" transform="translate(206,288)"/>
<path d="M0 0 C1.3096875 -0.01417969 2.619375 -0.02835937 3.96875 -0.04296875 C7.5 0.1875 7.5 0.1875 11.5 2.1875 C11.5 6.1475 11.5 10.1075 11.5 14.1875 C9.5 11.1875 9.5 11.1875 8.5 2.1875 C-0.905 2.6825 -0.905 2.6825 -10.5 3.1875 C-10.83 4.8375 -11.16 6.4875 -11.5 8.1875 C-12.16 9.1775 -12.82 10.1675 -13.5 11.1875 C-13.81263383 4.30955567 -13.81263383 4.30955567 -11.5 1.1875 C-7.78157001 -0.18434796 -3.91788046 0.01928091 0 0 Z " fill="#E8B93F" transform="translate(349.5,260.8125)"/>
<path d="M0 0 C0.33 0 0.66 0 1 0 C1.50734284 2.3736397 2.00602386 4.74857425 2.5 7.125 C2.64308594 7.79015625 2.78617187 8.4553125 2.93359375 9.140625 C3.7612283 13.16056422 4.15330658 16.89904899 4 21 C-1.5626148 23.66038099 -6.93267948 24.96232949 -13 26 C-13.33 23.69 -13.66 21.38 -14 19 C-13.34 19.99 -12.68 20.98 -12 22 C-6.86940098 22.5029999 -2.811686 21.57116277 2 20 C1.67257812 19.16210938 1.34515625 18.32421875 1.0078125 17.4609375 C-0.09647136 13.6687069 -0.19932952 10.56446457 -0.125 6.625 C-0.10695313 5.37976563 -0.08890625 4.13453125 -0.0703125 2.8515625 C-0.04710937 1.91054688 -0.02390625 0.96953125 0 0 Z " fill="#D3AA42" transform="translate(375,260)"/>
<path d="M0 0 C0.99 0 1.98 0 3 0 C3.10841951 1.91541138 3.18578079 3.83259773 3.25 5.75 C3.29640625 6.81734375 3.3428125 7.8846875 3.390625 8.984375 C2.91735478 12.63802112 1.80844958 13.72228105 -1 16 C-2.8291543 12.91154332 -3.2064877 10.98729251 -2.75 7.4375 C-2.66234375 6.67308594 -2.5746875 5.90867187 -2.484375 5.12109375 C-2 3 -2 3 0 0 Z " fill="#213DFB" transform="translate(249,293)"/>
<path d="M0 0 C2.18864435 0.25346433 4.23862893 0.21406073 6.4375 0.12109375 C10.125 0.24609375 10.125 0.24609375 12 1.30859375 C14.22595561 5.14218398 15.31357615 8.76891392 14.75 13.18359375 C14.54375 13.86421875 14.3375 14.54484375 14.125 15.24609375 C13.795 15.24609375 13.465 15.24609375 13.125 15.24609375 C12.980625 14.15296875 12.83625 13.05984375 12.6875 11.93359375 C12.24211896 8.31486388 12.24211896 8.31486388 11.125 5.24609375 C4.77681462 0.85119618 -4.57561597 2.13822108 -11.875 2.24609375 C-10.875 0.24609375 -10.875 0.24609375 -8.8125 -0.44140625 C-5.74768201 -0.76745072 -3.03710688 -0.46591981 0 0 Z " fill="#6575DF" transform="translate(140.875,286.75390625)"/>
<path d="M0 0 C2.64 0.33 5.28 0.66 8 1 C8.1875 3.375 8.1875 3.375 8 6 C4.77208445 8.1519437 3.71599191 8.20086443 0 8 C0 9.98 0 11.96 0 14 C0.99 14.33 1.98 14.66 3 15 C2.34 15 1.68 15 1 15 C1 16.65 1 18.3 1 20 C0.34 19.67 -0.32 19.34 -1 19 C-1.08126087 16.91731407 -1.13930839 14.83371342 -1.1875 12.75 C-1.22230469 11.58984375 -1.25710937 10.4296875 -1.29296875 9.234375 C-0.97982934 5.77731593 -0.34290892 4.48434437 2 2 C1.34 2 0.68 2 0 2 C0 1.34 0 0.68 0 0 Z " fill="#6475E3" transform="translate(237,287)"/>
<path d="M0 0 C1.32 0 2.64 0 4 0 C3.67 1.010625 3.34 2.02125 3 3.0625 C1.94818695 6.79303118 1.62604941 10.11091385 2 14 C3.35429841 15.94369738 3.35429841 15.94369738 5 17 C4.67 17.99 4.34 18.98 4 20 C3.195625 19.505 2.39125 19.01 1.5625 18.5 C-0.64896185 16.91580347 -0.64896185 16.91580347 -2 17 C-2 15.35 -2 13.7 -2 12 C-3.32 11.34 -4.64 10.68 -6 10 C-4.68 9.67 -3.36 9.34 -2 9 C-1.34 6.03 -0.68 3.06 0 0 Z " fill="#3F53E0" transform="translate(245,293)"/>
<path d="M0 0 C3.05917167 0.33990796 4.80401508 0.85698398 7.3125 2.6875 C9.45553291 5.62424881 9.32316568 7.44517748 9 11 C8.34 11 7.68 11 7 11 C6.34 10.34 5.68 9.68 5 9 C4.01 9 3.02 9 2 9 C2 7.68 2 6.36 2 5 C0.68 4.34 -0.64 3.68 -2 3 C-1.34 2.01 -0.68 1.02 0 0 Z " fill="#213CFB" transform="translate(144,289)"/>
<path d="M0 0 C0.66 0.33 1.32 0.66 2 1 C2 1.99 2 2.98 2 4 C1.01 4.495 1.01 4.495 0 5 C-0.2475 5.969375 -0.495 6.93875 -0.75 7.9375 C-2 11 -2 11 -4.9375 12.4375 C-8 13 -8 13 -11 12 C-9.71937515 10.2925002 -8.38232443 8.62626404 -7 7 C-6.34 7 -5.68 7 -5 7 C-4.731875 6.401875 -4.46375 5.80375 -4.1875 5.1875 C-3.01506533 3.02775192 -1.80630718 1.64209744 0 0 Z " fill="#44444D" transform="translate(240,235)"/>
<path d="M0 0 C2.22972273 0.11465421 4.45878753 0.24214766 6.6875 0.375 C7.92886719 0.44460937 9.17023438 0.51421875 10.44921875 0.5859375 C13.69317772 0.96422094 16.06567185 1.61979976 19 3 C18.67 3.99 18.34 4.98 18 6 C17.01 5.34 16.02 4.68 15 4 C12.61700383 3.55058745 10.21774516 3.18393057 7.8125 2.875 C6.54019531 2.70742187 5.26789063 2.53984375 3.95703125 2.3671875 C2.49330078 2.18542969 2.49330078 2.18542969 1 2 C0.85691406 3.06347656 0.71382813 4.12695312 0.56640625 5.22265625 C-0.03958817 9.26401215 -0.96134284 13.0531028 -2 17 C-2.33 17 -2.66 17 -3 17 C-2.54775239 11.08507728 -1.8417395 5.64800112 0 0 Z " fill="#2C1A06" transform="translate(340,211)"/>
<path d="M0 0 C2.97 0.495 2.97 0.495 6 1 C6 1.33 6 1.66 6 2 C4.35 2 2.7 2 1 2 C1 3.65 1 5.3 1 7 C2.65 7 4.3 7 6 7 C6 6.01 6 5.02 6 4 C6.66 4 7.32 4 8 4 C10 6 10 6 10 10 C9.01 10 8.02 10 7 10 C7 10.66 7 11.32 7 12 C3 12 3 12 1.26171875 10.79296875 C-0.36419327 8.48246219 -0.30908317 7.10891289 -0.1875 4.3125 C-0.16042969 3.50425781 -0.13335937 2.69601562 -0.10546875 1.86328125 C-0.07066406 1.24839844 -0.03585938 0.63351562 0 0 Z " fill="#4459F0" transform="translate(165,301)"/>
<path d="M0 0 C2.95839355 -0.02689449 5.91654427 -0.04678741 8.875 -0.0625 C9.71675781 -0.07087891 10.55851562 -0.07925781 11.42578125 -0.08789062 C12.23144531 -0.09111328 13.03710938 -0.09433594 13.8671875 -0.09765625 C14.98262939 -0.10551147 14.98262939 -0.10551147 16.12060547 -0.11352539 C18 0 18 0 20 1 C20 9.91 20 18.82 20 28 C19.67 28 19.34 28 19 28 C19 19.42 19 10.84 19 2 C16.6075 1.979375 14.215 1.95875 11.75 1.9375 C11.00331055 1.928396 10.25662109 1.91929199 9.48730469 1.90991211 C6.17305705 1.89609532 3.16439566 1.96423132 0 3 C0 2.01 0 1.02 0 0 Z " fill="#442D08" transform="translate(380,214)"/>
<path d="M0 0 C2.5625 0.4375 2.5625 0.4375 4.375 2.75 C5.5625 5.4375 5.5625 5.4375 5.5625 8.4375 C3.2525 8.4375 0.9425 8.4375 -1.4375 8.4375 C-1.4375 6.7875 -1.4375 5.1375 -1.4375 3.4375 C-2.4275 3.1075 -3.4175 2.7775 -4.4375 2.4375 C-2.4375 0.4375 -2.4375 0.4375 0 0 Z " fill="#243CED" transform="translate(195.4375,288.5625)"/>
<path d="M0 0 C3.63 0 7.26 0 11 0 C11 0.33 11 0.66 11 1 C7.7 1 4.4 1 1 1 C1.09539062 2.20398438 1.19078125 3.40796875 1.2890625 4.6484375 C1.40159688 6.22391877 1.51354573 7.79944195 1.625 9.375 C1.68945312 10.1690625 1.75390625 10.963125 1.8203125 11.78125 C1.96058587 13.85028224 1.98758237 15.92625536 2 18 C1.34 18.66 0.68 19.32 0 20 C-0.39149906 17.60583268 -0.76351777 15.21122464 -1.125 12.8125 C-1.23714844 12.13896484 -1.34929687 11.46542969 -1.46484375 10.77148438 C-2.14306667 6.13696109 -1.83244911 4.58112277 0 0 Z " fill="#5D6FD6" transform="translate(269,287)"/>
<path d="M0 0 C1.6415049 3.2830098 0.51888624 6.42545033 0 10 C-0.66 10 -1.32 10 -2 10 C-2 11.98 -2 13.96 -2 16 C-2.66 16 -3.32 16 -4 16 C-4 12.7 -4 9.4 -4 6 C-7.3 6 -10.6 6 -14 6 C-14 5.67 -14 5.34 -14 5 C-13.15695313 4.97421875 -12.31390625 4.9484375 -11.4453125 4.921875 C-10.34960938 4.86515625 -9.25390625 4.8084375 -8.125 4.75 C-7.03445312 4.70359375 -5.94390625 4.6571875 -4.8203125 4.609375 C-1.8667935 4.31153872 -1.8667935 4.31153872 -0.6171875 1.953125 C-0.41351563 1.30859375 -0.20984375 0.6640625 0 0 Z " fill="#6479EA" transform="translate(109,291)"/>
<path d="M0 0 C1.65 0 3.3 0 5 0 C5.33 2.64 5.66 5.28 6 8 C6.66 8 7.32 8 8 8 C8 10.31 8 12.62 8 15 C6.34746694 12.52120041 5.41755872 10.68269067 4.4375 7.9375 C3.69948197 5.88405088 2.97649314 3.95298629 2 2 C1.01 5.3 0.02 8.6 -1 12 C-1.33 12 -1.66 12 -2 12 C-2 8.7 -2 5.4 -2 2 C-1.34 2 -0.68 2 0 2 C0 1.34 0 0.68 0 0 Z " fill="#D6AA3B" transform="translate(347,234)"/>
<path d="M0 0 C0.66 0 1.32 0 2 0 C0.80589651 5.53629802 -0.60433451 8.16788137 -5 12 C-5.33 12.33 -5.66 12.66 -6 13 C-7.85287502 13.07226502 -9.70833878 13.0838122 -11.5625 13.0625 C-12.57441406 13.05347656 -13.58632812 13.04445313 -14.62890625 13.03515625 C-15.41136719 13.02355469 -16.19382813 13.01195312 -17 13 C-17 12.67 -17 12.34 -17 12 C-16.09507812 11.92652344 -16.09507812 11.92652344 -15.171875 11.8515625 C-14.37265625 11.77679688 -13.5734375 11.70203125 -12.75 11.625 C-11.96109375 11.55539062 -11.1721875 11.48578125 -10.359375 11.4140625 C-7.914123 10.98492887 -6.15163097 10.21399362 -4 9 C-4.33 7.68 -4.66 6.36 -5 5 C-3.68 5 -2.36 5 -1 5 C-0.67 3.35 -0.34 1.7 0 0 Z " fill="#5B6EDD" transform="translate(266,301)"/>
<path d="M0 0 C0.33 0 0.66 0 1 0 C1 2.97 1 5.94 1 9 C-0.98 9.99 -0.98 9.99 -3 11 C-3 13.31 -3 15.62 -3 18 C-3.99 17.34 -4.98 16.68 -6 16 C-5.52412884 9.97229862 -2.80277043 5.23321711 0 0 Z " fill="#E7B438" transform="translate(326,256)"/>
<path d="M0 0 C0.99 0.33 1.98 0.66 3 1 C2.85950482 2.47968324 2.71245174 3.95874516 2.5625 5.4375 C2.48128906 6.26121094 2.40007812 7.08492187 2.31640625 7.93359375 C2 10 2 10 1 11 C-0.66617115 11.04063832 -2.33388095 11.042721 -4 11 C-4 9.68 -4 8.36 -4 7 C-3.01 7 -2.02 7 -1 7 C-0.67 4.69 -0.34 2.38 0 0 Z " fill="#251910" transform="translate(348,241)"/>
<path d="M0 0 C0 0.33 0 0.66 0 1 C-6.435 1.495 -6.435 1.495 -13 2 C-13.33 4.64 -13.66 7.28 -14 10 C-13.01 10.33 -12.02 10.66 -11 11 C-12.65 10.67 -14.3 10.34 -16 10 C-16.66 7.69 -17.32 5.38 -18 3 C-16.68 3 -15.36 3 -14 3 C-14 2.34 -14 1.68 -14 1 C-8.83955235 -0.512545 -5.34001821 -1.33500455 0 0 Z " fill="#7684DC" transform="translate(219,286)"/>
<path d="M0 0 C-0.33 0.66 -0.66 1.32 -1 2 C-1.66 2 -2.32 2 -3 2 C-3 1.34 -3 0.68 -3 0 C-4.93627769 -0.10807131 -6.87427756 -0.1856225 -8.8125 -0.25 C-9.89144531 -0.29640625 -10.97039062 -0.3428125 -12.08203125 -0.390625 C-15.12076818 -0.29716453 -15.12076818 -0.29716453 -16.88671875 2.015625 C-17.25410156 2.67046875 -17.62148437 3.3253125 -18 4 C-18.99 3.67 -19.98 3.34 -21 3 C-16.77649528 -1.70619098 -16.77649528 -1.70619098 -13.6875 -2.875 C-8.65048532 -3.10927975 -4.29514703 -2.86343135 0 0 Z " fill="#6271DB" transform="translate(267,289)"/>
<path d="M0 0 C1.09658936 3.28976808 0.79953138 4.71303767 0 8 C-2.64 7.67 -5.28 7.34 -8 7 C-8 6.34 -8 5.68 -8 5 C-9.98 5 -11.96 5 -14 5 C-14 4.34 -14 3.68 -14 3 C-9.18061476 2.76490804 -5.53701494 3.54815522 -1 5 C-0.67 3.35 -0.34 1.7 0 0 Z " fill="#5161D3" transform="translate(222,308)"/>
<path d="M0 0 C0.33 0.99 0.66 1.98 1 3 C-1.40545638 4.20272819 -2.94996953 4.10071472 -5.625 4.0625 C-6.85089844 4.04896484 -6.85089844 4.04896484 -8.1015625 4.03515625 C-9.04128906 4.01775391 -9.04128906 4.01775391 -10 4 C-10.33 5.65 -10.66 7.3 -11 9 C-11.66 8.67 -12.32 8.34 -13 8 C-13 6.35 -13 4.7 -13 3 C-8.66914029 1.70074209 -4.48525648 0.656379 0 0 Z " fill="#3045D5" transform="translate(176,298)"/>
<path d="M0 0 C1.65 0 3.3 0 5 0 C5.12375 0.639375 5.2475 1.27875 5.375 1.9375 C5.684375 2.9584375 5.684375 2.9584375 6 4 C6.66 4.33 7.32 4.66 8 5 C7.67 5.99 7.34 6.98 7 8 C4 8 4 8 2.3125 6.625 C1 5 1 5 1 3 C0.34 3 -0.32 3 -1 3 C-0.67 2.01 -0.34 1.02 0 0 Z " fill="#223CFC" transform="translate(213,287)"/>
<path d="M0 0 C5.7090225 -0.23302133 10.66197132 -0.17878722 16 2 C17.4375 4.125 17.4375 4.125 18 6 C17.030625 5.525625 16.06125 5.05125 15.0625 4.5625 C10.80163851 2.71147001 6.59984394 2.30248407 2 2 C1.34 3.65 0.68 5.3 0 7 C-1.33332095 4.3333581 -0.67102033 2.83319697 0 0 Z " fill="#CDA440" transform="translate(341,213)"/>
<path d="M0 0 C0.33 0 0.66 0 1 0 C1 5.61 1 11.22 1 17 C-2.3 17 -5.6 17 -9 17 C-9 15.68 -9 14.36 -9 13 C-8.34 13 -7.68 13 -7 13 C-7 13.66 -7 14.32 -7 15 C-5.02 14.67 -3.04 14.34 -1 14 C-0.67 9.38 -0.34 4.76 0 0 Z " fill="#7C8BE6" transform="translate(190,297)"/>
<path d="M0 0 C0.33 0.66 0.66 1.32 1 2 C2.32 1.67 3.64 1.34 5 1 C5.33 1.99 5.66 2.98 6 4 C5.01 4.33 4.02 4.66 3 5 C2.67 4.67 2.34 4.34 2 4 C1.01 5.485 1.01 5.485 0 7 C-3.625 7.6875 -3.625 7.6875 -7 8 C-7.66 6.02 -8.32 4.04 -9 2 C-8.34 2 -7.68 2 -7 2 C-7 2.99 -7 3.98 -7 5 C-4.69 5 -2.38 5 0 5 C0 3.35 0 1.7 0 0 Z " fill="#6C79DF" transform="translate(106,308)"/>
<path d="M0 0 C3.85645121 -0.22036864 6.49223216 0.39644899 10 2 C10 2.66 10 3.32 10 4 C10.66 4 11.32 4 12 4 C11.43891766 7.25427759 10.54442592 8.87964507 8 11 C7.67 11 7.34 11 7 11 C7 9.35 7 7.7 7 6 C7.66 6 8.32 6 9 6 C9 5.34 9 4.68 9 4 C7.35 3.67 5.7 3.34 4 3 C4 2.34 4 1.68 4 1 C2.68 0.67 1.36 0.34 0 0 Z " fill="#707EDE" transform="translate(117,302)"/>
<path d="M0 0 C0.33 0 0.66 0 1 0 C1.33 3.3 1.66 6.6 2 10 C2.33 8.68 2.66 7.36 3 6 C5.50357861 6.8345262 7.66785852 7.79371992 10 9 C9.34 9 8.68 9 8 9 C8 10.65 8 12.3 8 14 C7.34 13.01 6.68 12.02 6 11 C4.02 11.33 2.04 11.66 0 12 C0 8.04 0 4.08 0 0 Z " fill="#263BDA" transform="translate(235,296)"/>
<path d="M0 0 C0.33 0 0.66 0 1 0 C1 3.96 1 7.92 1 12 C-1.97 12 -4.94 12 -8 12 C-8.33 10.02 -8.66 8.04 -9 6 C-8.67 6.99 -8.34 7.98 -8 9 C-5.36 9.33 -2.72 9.66 0 10 C-0.08378906 9.36191406 -0.16757812 8.72382813 -0.25390625 8.06640625 C-0.35574219 7.24011719 -0.45757812 6.41382813 -0.5625 5.5625 C-0.66691406 4.73878906 -0.77132813 3.91507812 -0.87890625 3.06640625 C-0.91886719 2.38449219 -0.95882813 1.70257813 -1 1 C-0.67 0.67 -0.34 0.34 0 0 Z " fill="#485AD6" transform="translate(279,302)"/>
<path d="M0 0 C1.32 0.66 2.64 1.32 4 2 C4 2.66 4 3.32 4 4 C1.22578757 5.88646445 -0.13239454 5.99303187 -3.5625 5.8125 C-7 5 -7 5 -10 2 C-7.03 2 -4.06 2 -1 2 C-0.67 1.34 -0.34 0.68 0 0 Z " fill="#5F6EDD" transform="translate(239,308)"/>
<path d="M0 0 C1.10359366 4.41437466 0.72502467 5.91441525 -1 10 C-4.15239592 11.57619796 -6.61571748 10.68832865 -10 10 C-12.9375 8.4375 -12.9375 8.4375 -15 7 C-14.67 6.34 -14.34 5.68 -14 5 C-12.6696875 5.7115625 -12.6696875 5.7115625 -11.3125 6.4375 C-8.42957244 7.79737149 -6.12389377 8.54060386 -3 9 C-2.01 6.03 -1.02 3.06 0 0 Z " fill="#2A1B0A" transform="translate(337,269)"/>
<path d="M0 0 C3.875 1.75 3.875 1.75 5 4 C5.13415472 6.6723621 5.04318541 9.32250488 5 12 C4.34 12 3.68 12 3 12 C2.67 10.02 2.34 8.04 2 6 C1.34 6 0.68 6 0 6 C-1 3 -1 3 0 0 Z " fill="#253DE6" transform="translate(263,289)"/>
<path d="M0 0 C2.625 0.375 2.625 0.375 5 1 C5 4 5 4 4 6 C1.67843403 6.40729228 -0.6568787 6.74438677 -3 7 C-2.25 2.25 -2.25 2.25 0 0 Z " fill="#0C0B17" transform="translate(153,209)"/>
<path d="M0 0 C1.14662109 0.11794922 1.14662109 0.11794922 2.31640625 0.23828125 C4.4375 0.6875 4.4375 0.6875 7.4375 2.6875 C7.4375 3.3475 7.4375 4.0075 7.4375 4.6875 C6.1175 4.6875 4.7975 4.6875 3.4375 4.6875 C3.1075 4.0275 2.7775 3.3675 2.4375 2.6875 C-1.5225 2.6875 -5.4825 2.6875 -9.5625 2.6875 C-8.5625 0.6875 -8.5625 0.6875 -6.78515625 0.04296875 C-4.39085506 -0.33995112 -2.40655095 -0.27282388 0 0 Z " fill="#697CDC" transform="translate(95.5625,278.3125)"/>
<path d="M0 0 C0.66 0 1.32 0 2 0 C2.33 2.31 2.66 4.62 3 7 C-0.21451269 8.60725635 -3.43612536 8.05748185 -7 8 C-7 7.34 -7 6.68 -7 6 C-4.69 6 -2.38 6 0 6 C0 4.02 0 2.04 0 0 Z " fill="#4F5FD1" transform="translate(102,283)"/>
<path d="M0 0 C0.66 0 1.32 0 2 0 C2 3.63 2 7.26 2 11 C4.64 11 7.28 11 10 11 C10 11.33 10 11.66 10 12 C8.54176788 12.0270043 7.08339325 12.04639787 5.625 12.0625 C4.81289062 12.07410156 4.00078125 12.08570313 3.1640625 12.09765625 C1 12 1 12 -1 11 C-0.67 7.37 -0.34 3.74 0 0 Z " fill="#6A77D5" transform="translate(143,301)"/>
<path d="M0 0 C2.57966596 2.57966596 3.33609844 5.09307892 4.625 8.5 C5.29402344 10.24796875 5.29402344 10.24796875 5.9765625 12.03125 C7 15 7 15 7 17 C6.34 17 5.68 17 5 17 C4.70996094 16.04287109 4.70996094 16.04287109 4.4140625 15.06640625 C4.15367187 14.24011719 3.89328125 13.41382813 3.625 12.5625 C3.36976563 11.73878906 3.11453125 10.91507813 2.8515625 10.06640625 C2.19117773 7.82201984 2.19117773 7.82201984 0 7 C0 4.69 0 2.38 0 0 Z " fill="#D9AC3A" transform="translate(361,222)"/>
<path d="M0 0 C2.475 0.99 2.475 0.99 5 2 C4.67 2.66 4.34 3.32 4 4 C3.67 4 3.34 4 3 4 C3 7.3 3 10.6 3 14 C-0.26566506 9.10150241 -0.09311493 5.68001091 0 0 Z " fill="#23170E" transform="translate(371,240)"/>
<path d="M0 0 C0.33 0 0.66 0 1 0 C1.33 2.64 1.66 5.28 2 8 C2.99 8.33 3.98 8.66 5 9 C2.36 9.33 -0.28 9.66 -3 10 C-2.67 8.68 -2.34 7.36 -2 6 C-2.66 6 -3.32 6 -4 6 C-3.67 5.34 -3.34 4.68 -3 4 C-2.34 4.33 -1.68 4.66 -1 5 C-0.67 3.35 -0.34 1.7 0 0 Z " fill="#243AD6" transform="translate(120,292)"/>
<path d="M0 0 C1 2 1 2 0 6 C5.445 5.505 5.445 5.505 11 5 C10.67 5.66 10.34 6.32 10 7 C7.27734375 7.4140625 7.27734375 7.4140625 3.9375 7.625 C2.83277344 7.69976562 1.72804688 7.77453125 0.58984375 7.8515625 C-0.26480469 7.90054688 -1.11945313 7.94953125 -2 8 C-1.125 1.125 -1.125 1.125 0 0 Z " fill="#DAAB3D" transform="translate(344,246)"/>
<path d="M0 0 C0.33 0 0.66 0 1 0 C1.05422947 1.4370809 1.09289723 2.87475462 1.125 4.3125 C1.14820313 5.11300781 1.17140625 5.91351563 1.1953125 6.73828125 C1 9 1 9 -1 12 C-3.125 12.6875 -3.125 12.6875 -5 13 C-5 11.02 -5 9.04 -5 7 C-4.01 8.485 -4.01 8.485 -3 10 C-2.01 6.7 -1.02 3.4 0 0 Z " fill="#3F54DF" transform="translate(259,296)"/>
<path d="M0 0 C1.85772162 0.08984301 3.71247985 0.24611861 5.5625 0.4375 C7.08037109 0.59025391 7.08037109 0.59025391 8.62890625 0.74609375 C9.80259766 0.87177734 9.80259766 0.87177734 11 1 C11 2.65 11 4.3 11 6 C10.67 4.68 10.34 3.36 10 2 C5.545 2.495 5.545 2.495 1 3 C0.67 4.65 0.34 6.3 0 8 C-0.33 8 -0.66 8 -1 8 C-1.04241723 5.66705225 -1.04092937 3.33297433 -1 1 C-0.67 0.67 -0.34 0.34 0 0 Z " fill="#8392E1" transform="translate(228,281)"/>
<path d="M0 0 C2 3 2 3 1.625 5.1875 C1.41875 5.785625 1.2125 6.38375 1 7 C0.34 6.67 -0.32 6.34 -1 6 C-1.33 8.31 -1.66 10.62 -2 13 C-2.66 13 -3.32 13 -4 13 C-3.52511102 11.01980257 -3.04497141 9.04086365 -2.5625 7.0625 C-2.29566406 5.96035156 -2.02882813 4.85820312 -1.75390625 3.72265625 C-1 1 -1 1 0 0 Z " fill="#291704" transform="translate(349,235)"/>
<path d="M0 0 C0.33 0 0.66 0 1 0 C1.04254356 1.99954746 1.04080783 4.00041636 1 6 C0 7 0 7 -3.0625 7.0625 C-4.031875 7.041875 -5.00125 7.02125 -6 7 C-6.625 5.125 -6.625 5.125 -7 3 C-6.34 2.34 -5.68 1.68 -5 1 C-4.67 1.99 -4.34 2.98 -4 4 C-3.01 3.67 -2.02 3.34 -1 3 C-0.67 2.01 -0.34 1.02 0 0 Z " fill="#5969E4" transform="translate(95,301)"/>
<path d="M0 0 C2.88437779 1.29299694 4.87219421 2.65941363 7 5 C6.67 5.99 6.34 6.98 6 8 C5.195625 7.505 4.39125 7.01 3.5625 6.5 C1.35103815 4.91580347 1.35103815 4.91580347 0 5 C0 3.35 0 1.7 0 0 Z " fill="#4A60E0" transform="translate(243,305)"/>
<path d="M0 0 C0 1.98 0 3.96 0 6 C-2.31 5.67 -4.62 5.34 -7 5 C-7 3.68 -7 2.36 -7 1 C-4 0 -4 0 0 0 Z M-4 1 C-4.99 1.495 -4.99 1.495 -6 2 C-6 2.66 -6 3.32 -6 4 C-5.01 4 -4.02 4 -3 4 C-3.33 3.01 -3.66 2.02 -4 1 Z " fill="#4F61E4" transform="translate(217,303)"/>
<path d="M0 0 C2.18994248 3.28491373 2.35277339 4.83095639 2.625 8.6875 C2.69976562 9.68136719 2.77453125 10.67523438 2.8515625 11.69921875 C2.92503906 12.83810547 2.92503906 12.83810547 3 14 C2.01 14 1.02 14 0 14 C0 9.38 0 4.76 0 0 Z " fill="#2C1D0A" transform="translate(359,272)"/>
<path d="M0 0 C0.66 0.33 1.32 0.66 2 1 C0.3125 4 0.3125 4 -2 7 C-4.75 7.375 -4.75 7.375 -7 7 C-7 6.34 -7 5.68 -7 5 C-4.75598043 3.05124617 -2.66363467 1.33181733 0 0 Z " fill="#4A4A53" transform="translate(311,190)"/>
<path d="M0 0 C0.66 0 1.32 0 2 0 C1.34 1.65 0.68 3.3 0 5 C-4.44870215 5.39253254 -7.14243493 4.15305957 -11 2 C-7.42355152 0.7619986 -4.66305234 1.25073929 -1 2 C-0.67 1.34 -0.34 0.68 0 0 Z " fill="#CCA73D" transform="translate(334,273)"/>
<path d="M0 0 C2 3 2 3 1.625 6.1875 C1.41875 7.115625 1.2125 8.04375 1 9 C0.01 8.67 -0.98 8.34 -2 8 C-2.875 6.1875 -2.875 6.1875 -3 4 C-1.5625 1.75 -1.5625 1.75 0 0 Z " fill="#0B0B19" transform="translate(205,257)"/>
<path d="M0 0 C1.32 0 2.64 0 4 0 C4 2.64 4 5.28 4 8 C3.01 8 2.02 8 1 8 C0.40267181 5.23735711 0 2.83967231 0 0 Z " fill="#0C0C17" transform="translate(218,234)"/>
<path d="M0 0 C1.65 0 3.3 0 5 0 C5 0.66 5 1.32 5 2 C6.65 2 8.3 2 10 2 C9.67 3.32 9.34 4.64 9 6 C8.01 5.67 7.02 5.34 6 5 C5.67 5 5.34 5 5 5 C3.31288577 3.3540349 1.6454378 1.68762851 0 0 Z M2 5 C4 6 4 6 4 6 Z " fill="#0B0A17" transform="translate(261,209)"/>
<path d="M0 0 C0.66 0.33 1.32 0.66 2 1 C1.01 1.33 0.02 1.66 -1 2 C-0.814375 2.928125 -0.62875 3.85625 -0.4375 4.8125 C0 8 0 8 -1 11 C-1.99 11.33 -2.98 11.66 -4 12 C-3.125 4.375 -3.125 4.375 -2 1 C-1.34 0.67 -0.68 0.34 0 0 Z " fill="#0B0A17" transform="translate(85,219)"/>
<path d="M0 0 C1.32 0 2.64 0 4 0 C3.67 1.98 3.34 3.96 3 6 C1.68 6.33 0.36 6.66 -1 7 C-1.04254356 5.00045254 -1.04080783 2.99958364 -1 1 C-0.67 0.67 -0.34 0.34 0 0 Z M2 1 C1.67 2.32 1.34 3.64 1 5 C1.66 4.67 2.32 4.34 3 4 C2.67 3.01 2.34 2.02 2 1 Z " fill="#576AE2" transform="translate(166,291)"/>
<path d="M0 0 C0.99 0 1.98 0 3 0 C3 3.96 3 7.92 3 12 C0.97649676 8.96474514 0.67875982 7.80573798 0.375 4.3125 C0.30023438 3.50425781 0.22546875 2.69601562 0.1484375 1.86328125 C0.09945313 1.24839844 0.05046875 0.63351562 0 0 Z " fill="#CEA337" transform="translate(358,263)"/>
<path d="M0 0 C2.64 0 5.28 0 8 0 C8.33 0.66 8.66 1.32 9 2 C6.29120665 3.35439668 3.99066732 3.06501451 1 3 C0.67 2.01 0.34 1.02 0 0 Z " fill="#6D7CD8" transform="translate(131,313)"/>
<path d="M0 0 C0.66 0.33 1.32 0.66 2 1 C2 1.66 2 2.32 2 3 C0.35333797 2.8864371 -1.29236082 2.75882619 -2.9375 2.625 C-3.85402344 2.55539062 -4.77054687 2.48578125 -5.71484375 2.4140625 C-6.84599609 2.20910156 -6.84599609 2.20910156 -8 2 C-8.33 1.34 -8.66 0.68 -9 0 C-5.90914327 -1.54542837 -3.32167685 -0.59315658 0 0 Z " fill="#697BD9" transform="translate(125,286)"/>
<path d="M0 0 C0.33 0.66 0.66 1.32 1 2 C0.07421875 3.9453125 0.07421875 3.9453125 -1.3125 6.125 C-1.76238281 6.84945313 -2.21226563 7.57390625 -2.67578125 8.3203125 C-3.11277344 8.87460937 -3.54976563 9.42890625 -4 10 C-4.66 10 -5.32 10 -6 10 C-4.79157144 5.56909529 -3.48331435 3.01887244 0 0 Z " fill="#6777D9" transform="translate(85,281)"/>
<path d="M0 0 C1.32 0.33 2.64 0.66 4 1 C3.34 4.3 2.68 7.6 2 11 C-0.67927341 6.98108988 -0.15601248 4.75838077 0 0 Z " fill="#F3BD34" transform="translate(361,271)"/>
<path d="M0 0 C0.99 0.33 1.98 0.66 3 1 C3.125 6.75 3.125 6.75 2 9 C1.34 9 0.68 9 0 9 C0 6.03 0 3.06 0 0 Z " fill="#0C0B1B" transform="translate(348,241)"/>
<path d="M0 0 C1.02104551 0.97850195 2.0206121 1.97980427 3 3 C3 3.33 3 3.66 3 4 C5.97 4.33 8.94 4.66 12 5 C12 5.33 12 5.66 12 6 C10.18757948 6.02687279 8.37504767 6.04633715 6.5625 6.0625 C5.55316406 6.07410156 4.54382813 6.08570313 3.50390625 6.09765625 C1 6 1 6 0 5 C-0.04063832 3.33382885 -0.042721 1.66611905 0 0 Z " fill="#76767D" transform="translate(201,262)"/>
<path d="M0 0 C0 0.99 0 1.98 0 3 C-2.35438733 4.42944945 -3.48032433 5.08661261 -6.25 4.625 C-6.8275 4.41875 -7.405 4.2125 -8 4 C-7.67 3.34 -7.34 2.68 -7 2 C-5.125 1.4375 -5.125 1.4375 -3 1 C-2.01 0.67 -1.02 0.34 0 0 Z " fill="#0C0C18" transform="translate(259,217)"/>
<path d="M0 0 C0.99 0 1.98 0 3 0 C3 1.65 3 3.3 3 5 C4.65 5 6.3 5 8 5 C8 5.33 8 5.66 8 6 C5.125 6.125 5.125 6.125 2 6 C1.34 5.34 0.68 4.68 0 4 C0 2.68 0 1.36 0 0 Z " fill="#6079E3" transform="translate(191,292)"/>
<path d="M0 0 C0.66 0 1.32 0 2 0 C2.625 3.375 2.625 3.375 3 7 C2.34 7.66 1.68 8.32 1 9 C-0.4783226 6.04335481 -0.06032783 3.25770263 0 0 Z " fill="#213EE2" transform="translate(175,289)"/>
<path d="M0 0 C1.65 0 3.3 0 5 0 C5.33 0.66 5.66 1.32 6 2 C3 4 3 4 1 5 C1 4.34 1 3.68 1 3 C0.34 3 -0.32 3 -1 3 C-0.67 2.01 -0.34 1.02 0 0 Z " fill="#253DEA" transform="translate(213,287)"/>
<path d="M0 0 C0.33 0 0.66 0 1 0 C1 2.97 1 5.94 1 9 C0.01 8.34 -0.98 7.68 -2 7 C-1.125 1.125 -1.125 1.125 0 0 Z " fill="#D2A93B" transform="translate(322,265)"/>
<path d="M0 0 C0.598125 0.20625 1.19625 0.4125 1.8125 0.625 C1.1525 1.285 0.4925 1.945 -0.1875 2.625 C-1.5075 2.625 -2.8275 2.625 -4.1875 2.625 C-4.1875 4.275 -4.1875 5.925 -4.1875 7.625 C-4.5175 7.625 -4.8475 7.625 -5.1875 7.625 C-5.375 4.75 -5.375 4.75 -5.1875 1.625 C-2.1875 -0.375 -2.1875 -0.375 0 0 Z " fill="#65646C" transform="translate(207.1875,210.375)"/>
<path d="M0 0 C0.99 0 1.98 0 3 0 C3 1.98 3 3.96 3 6 C2.01 6 1.02 6 0 6 C0 4.02 0 2.04 0 0 Z " fill="#4658E3" transform="translate(180,304)"/>
<path d="M0 0 C2 3 2 3 1.6875 5.0625 C1 7 1 7 0 9 C-0.66 9 -1.32 9 -2 9 C-1.34 6.03 -0.68 3.06 0 0 Z " fill="#585760" transform="translate(299,203)"/>
<path d="M0 0 C0 0.66 0 1.32 0 2 C-0.66 2 -1.32 2 -2 2 C-2 2.66 -2 3.32 -2 4 C-3.32 4.33 -4.64 4.66 -6 5 C-6.33 4.34 -6.66 3.68 -7 3 C-4.49955934 -0.00052879 -4.2621484 0 0 0 Z " fill="#2140F4" transform="translate(126,306)"/>
<path d="M0 0 C0.66 0.33 1.32 0.66 2 1 C2 3.31 2 5.62 2 8 C1.01 8 0.02 8 -1 8 C-0.67 5.36 -0.34 2.72 0 0 Z " fill="#6471C9" transform="translate(290,289)"/>
<path d="M0 0 C1.65 0 3.3 0 5 0 C4.34 1.32 3.68 2.64 3 4 C1.68 3.67 0.36 3.34 -1 3 C-0.67 2.01 -0.34 1.02 0 0 Z " fill="#203CFB" transform="translate(283,289)"/>
<path d="M0 0 C0.99 0.66 1.98 1.32 3 2 C2.01 2.33 1.02 2.66 0 3 C0 3.66 0 4.32 0 5 C-0.66 5 -1.32 5 -2 5 C-2.33 5.66 -2.66 6.32 -3 7 C-3.33 6.01 -3.66 5.02 -4 4 C-2.68 3.34 -1.36 2.68 0 2 C0 1.34 0 0.68 0 0 Z " fill="#595961" transform="translate(265,234)"/>
</svg>
